<svg width="455" height="23" viewBox="0 0 455 23" fill="none" xmlns="http://www.w3.org/2000/svg">
<path d="M14.9285 6.456C14.9285 3.6 12.5765 1.248 9.7205 1.248H0.3125V17.976H9.8885C12.7445 17.976 15.0965 15.648 15.0965 12.792C15.0965 11.544 14.6405 10.416 13.9205 9.528C14.5445 8.664 14.9285 7.608 14.9285 6.456ZM4.3925 5.352H9.7205C10.3205 5.352 10.8245 5.856 10.8245 6.456C10.8245 7.08 10.3205 7.584 9.7205 7.584H4.3925V5.352ZM9.8885 13.896H4.3925V11.664H9.8405C10.4645 11.664 10.9925 12.168 10.9925 12.792C10.9925 13.392 10.4885 13.896 9.8885 13.896ZM31.04 18.024H35.456L28.976 1.248H24.656L18.2 18.024H22.616L23.408 15.96H30.248L31.04 18.024ZM24.968 11.88L26.816 7.032L28.688 11.88H24.968ZM50.9947 11.16L44.4427 1.224H39.9547V17.976H44.0347V8.04L50.6107 18.024H55.0747V1.296H50.9947V11.16ZM72.4869 18.024H76.9029L70.4229 1.248H66.1029L59.6469 18.024H64.0629L64.8549 15.96H71.6949L72.4869 18.024ZM66.4149 11.88L68.2629 7.032L70.1349 11.88H66.4149ZM85.2472 1.248H81.1672V18.024H94.5352V13.92H85.2472V1.248ZM107.731 11.664V8.064H119.107V11.664H107.731ZM146.919 6.456C146.919 3.6 144.567 1.248 141.711 1.248H132.303V17.976H141.879C144.735 17.976 147.087 15.648 147.087 12.792C147.087 11.544 146.631 10.416 145.911 9.528C146.535 8.664 146.919 7.608 146.919 6.456ZM136.383 5.352H141.711C142.311 5.352 142.815 5.856 142.815 6.456C142.815 7.08 142.311 7.584 141.711 7.584H136.383V5.352ZM141.879 13.896H136.383V11.664H141.831C142.455 11.664 142.983 12.168 142.983 12.792C142.983 13.392 142.479 13.896 141.879 13.896ZM160.001 1.008C155.273 1.008 151.409 4.872 151.409 9.6C151.409 14.352 155.273 18.192 160.001 18.192C164.753 18.192 168.593 14.352 168.593 9.6C168.593 4.872 164.753 1.008 160.001 1.008ZM160.001 14.112C157.529 14.112 155.489 12.096 155.489 9.6C155.489 7.104 157.529 5.088 160.001 5.088C162.497 5.088 164.513 7.104 164.513 9.6C164.513 12.096 162.497 14.112 160.001 14.112ZM183.916 10.8C183.916 12.624 182.428 14.112 180.58 14.112C178.756 14.112 177.244 12.624 177.244 10.8V1.224H173.164V10.8C173.164 14.88 176.5 18.216 180.58 18.216C184.684 18.216 188.02 14.88 188.02 10.8V1.224H183.916V10.8ZM208.32 6.432C208.32 3.576 205.968 1.248 203.112 1.248H193.536V18.024H197.616V11.64H201.72L204.216 18.024H208.704L205.824 10.872C207.312 9.96 208.32 8.304 208.32 6.432ZM203.112 7.56H197.616V5.328H203.112C203.712 5.328 204.216 5.832 204.216 6.432C204.216 7.056 203.712 7.56 203.112 7.56ZM228.125 6.456C228.125 3.6 225.773 1.248 222.917 1.248H213.509V17.976H223.085C225.941 17.976 228.293 15.648 228.293 12.792C228.293 11.544 227.837 10.416 227.117 9.528C227.741 8.664 228.125 7.608 228.125 6.456ZM217.589 5.352H222.917C223.517 5.352 224.021 5.856 224.021 6.456C224.021 7.08 223.517 7.584 222.917 7.584H217.589V5.352ZM223.085 13.896H217.589V11.664H223.037C223.661 11.664 224.189 12.168 224.189 12.792C224.189 13.392 223.685 13.896 223.085 13.896ZM241.208 1.008C236.48 1.008 232.616 4.872 232.616 9.6C232.616 14.352 236.48 18.192 241.208 18.192C245.96 18.192 249.8 14.352 249.8 9.6C249.8 4.872 245.96 1.008 241.208 1.008ZM241.208 14.112C238.736 14.112 236.696 12.096 236.696 9.6C236.696 7.104 238.736 5.088 241.208 5.088C243.704 5.088 245.72 7.104 245.72 9.6C245.72 12.096 243.704 14.112 241.208 14.112ZM265.645 11.16L259.093 1.224H254.605V17.976H258.685V8.04L265.261 18.024H269.725V1.296H265.645V11.16ZM291.159 12.36H294.567V13.2C293.727 13.728 292.551 14.088 291.495 14.088C289.023 14.088 287.007 12.096 287.007 9.624C287.007 7.152 289.023 5.136 291.495 5.136C292.791 5.136 294.039 5.712 294.903 6.72L297.999 4.056C296.367 2.16 293.991 1.056 291.495 1.056C286.767 1.056 282.927 4.896 282.927 9.624C282.927 14.352 286.767 18.192 291.495 18.192C293.967 18.192 296.535 17.16 298.071 15.576L298.647 14.976V8.28H291.159V12.36ZM318.457 6.432C318.457 3.576 316.105 1.248 313.249 1.248H303.673V18.024H307.753V11.64H311.857L314.353 18.024H318.841L315.961 10.872C317.449 9.96 318.457 8.304 318.457 6.432ZM313.249 7.56H307.753V5.328H313.249C313.849 5.328 314.353 5.832 314.353 6.432C314.353 7.056 313.849 7.56 313.249 7.56ZM331.278 1.008C326.55 1.008 322.686 4.872 322.686 9.6C322.686 14.352 326.55 18.192 331.278 18.192C336.03 18.192 339.87 14.352 339.87 9.6C339.87 4.872 336.03 1.008 331.278 1.008ZM331.278 14.112C328.806 14.112 326.766 12.096 326.766 9.6C326.766 7.104 328.806 5.088 331.278 5.088C333.774 5.088 335.79 7.104 335.79 9.6C335.79 12.096 333.774 14.112 331.278 14.112ZM358.354 1.248V5.328H353.074V18.024H348.994V5.328H343.714V1.248H358.354ZM363.383 17.976H376.511V13.896H367.463V11.664H374.543V7.584H367.463V5.352H376.511V1.248H363.383V17.976ZM387.923 4.536C389.579 4.128 391.427 4.728 392.555 6C393.179 5.4 393.827 4.8 394.427 4.2L395.795 2.88C394.499 1.848 392.963 1.152 391.355 0.839999C389.795 0.527999 388.163 0.551999 386.627 0.983999C385.379 1.32 384.179 1.896 383.339 2.856C382.547 3.696 382.091 4.848 382.067 6C382.067 7.152 382.475 8.304 383.267 9.144C384.011 9.984 385.043 10.488 386.099 10.848C387.155 11.208 388.259 11.424 389.315 11.784C389.987 12 390.683 12.288 391.019 13.032C391.043 13.08 391.067 13.152 391.091 13.248C391.259 14.376 390.107 14.808 389.147 14.832C387.395 14.88 385.619 14.16 384.371 12.912L381.083 15.96C382.811 17.592 385.163 18.456 387.539 18.624C388.979 18.72 390.491 18.576 391.835 18C393.179 17.424 394.379 16.416 395.027 15.12C395.699 13.8 395.747 12.192 395.075 10.896C394.715 10.176 394.139 9.6 393.491 9.144C393.035 8.832 392.531 8.568 392.027 8.352C390.779 7.824 389.435 7.536 388.163 7.128C387.611 6.936 387.059 6.744 386.747 6.192L386.675 6.024C386.435 5.184 387.227 4.704 387.923 4.536ZM408.219 1.008C403.491 1.008 399.627 4.872 399.627 9.6C399.627 13.632 402.435 17.04 406.179 17.952L409.947 22.032H414.027L410.259 17.952C414.027 17.04 416.811 13.632 416.811 9.6C416.811 4.872 412.971 1.008 408.219 1.008ZM408.219 14.112C405.747 14.112 403.707 12.096 403.707 9.6C403.707 7.104 405.747 5.088 408.219 5.088C410.715 5.088 412.731 7.104 412.731 9.6C412.731 12.096 410.715 14.112 408.219 14.112ZM432.133 10.8C432.133 12.624 430.645 14.112 428.797 14.112C426.973 14.112 425.461 12.624 425.461 10.8V1.224H421.381V10.8C421.381 14.88 424.717 18.216 428.797 18.216C432.901 18.216 436.237 14.88 436.237 10.8V1.224H432.133V10.8ZM441.753 17.976H454.881V13.896H445.833V11.664H452.913V7.584H445.833V5.352H454.881V1.248H441.753V17.976Z" fill="black"/>
</svg>
