<svg width="237" height="19" viewBox="0 0 237 19" fill="none" xmlns="http://www.w3.org/2000/svg">
<path d="M7.67487 1.2H0.522874V18H7.98687C8.89887 18 9.73087 17.896 10.4829 17.688C11.2349 17.48 11.8749 17.184 12.4029 16.8C12.9469 16.4 13.3629 15.912 13.6509 15.336C13.9389 14.76 14.0829 14.112 14.0829 13.392C14.0829 12.816 13.9869 12.304 13.7949 11.856C13.6029 11.408 13.3469 11.024 13.0269 10.704C12.7069 10.384 12.3229 10.112 11.8749 9.888C11.4429 9.648 10.9789 9.456 10.4829 9.312C10.8189 9.168 11.1389 8.992 11.4429 8.784C11.7629 8.56 12.0509 8.288 12.3069 7.968C12.5629 7.648 12.7629 7.28 12.9069 6.864C13.0669 6.448 13.1469 5.96 13.1469 5.4C13.1469 4.76 13.0189 4.184 12.7629 3.672C12.5069 3.144 12.1389 2.704 11.6589 2.352C11.1789 1.984 10.6029 1.704 9.93087 1.512C9.25887 1.304 8.50687 1.2 7.67487 1.2ZM7.36287 8.688H2.39487V2.904H7.50687C8.70687 2.904 9.62687 3.152 10.2669 3.648C10.9069 4.144 11.2269 4.816 11.2269 5.664C11.2269 6.656 10.8669 7.408 10.1469 7.92C9.42687 8.432 8.49887 8.688 7.36287 8.688ZM8.03487 16.296H2.39487V10.368H7.69887C9.17087 10.368 10.2829 10.624 11.0349 11.136C11.7869 11.632 12.1629 12.344 12.1629 13.272C12.1629 14.232 11.7949 14.976 11.0589 15.504C10.3229 16.032 9.31487 16.296 8.03487 16.296ZM27.0352 1.08H25.2592L17.6032 18H19.5472L21.5392 13.56H30.6832L32.6512 18H34.6912L27.0352 1.08ZM29.9392 11.856H22.2832L26.1232 3.288L29.9392 11.856ZM51.5641 14.664L40.9801 1.2H39.2041V18H41.0521V4.224L51.9001 18H53.4121V1.2H51.5641V14.664ZM67.3571 1.08H65.5811L57.9251 18H59.8691L61.8611 13.56H71.0051L72.9731 18H75.0131L67.3571 1.08ZM70.2611 11.856H62.6051L66.4451 3.288L70.2611 11.856ZM79.526 18H90.878V16.248H81.422V1.2H79.526V18ZM109.837 11.76V9.816H103.165V11.76H109.837ZM137.917 15.72V9.024H130.981V10.728H136.093V14.904C135.517 15.368 134.805 15.768 133.957 16.104C133.109 16.424 132.205 16.584 131.245 16.584C130.221 16.584 129.301 16.408 128.485 16.056C127.669 15.704 126.973 15.216 126.397 14.592C125.821 13.968 125.373 13.232 125.053 12.384C124.749 11.52 124.597 10.584 124.597 9.576C124.597 8.632 124.757 7.744 125.077 6.912C125.397 6.064 125.837 5.328 126.397 4.704C126.957 4.08 127.629 3.584 128.413 3.216C129.197 2.848 130.053 2.664 130.981 2.664C131.573 2.664 132.109 2.712 132.589 2.808C133.085 2.904 133.533 3.04 133.933 3.216C134.349 3.376 134.733 3.576 135.085 3.816C135.437 4.04 135.773 4.296 136.093 4.584L137.317 3.144C136.901 2.792 136.469 2.48 136.021 2.208C135.589 1.92 135.117 1.68 134.605 1.488C134.109 1.296 133.565 1.152 132.973 1.056C132.397 0.96 131.757 0.912 131.053 0.912C129.789 0.912 128.637 1.152 127.597 1.632C126.573 2.096 125.693 2.728 124.957 3.528C124.221 4.328 123.645 5.256 123.229 6.312C122.829 7.368 122.629 8.472 122.629 9.624C122.629 10.824 122.821 11.952 123.205 13.008C123.605 14.064 124.173 14.984 124.909 15.768C125.661 16.552 126.557 17.168 127.597 17.616C128.653 18.064 129.845 18.288 131.173 18.288C132.597 18.288 133.877 18.04 135.013 17.544C136.165 17.032 137.133 16.424 137.917 15.72ZM159.785 9.576C159.785 8.408 159.577 7.304 159.161 6.264C158.761 5.208 158.185 4.288 157.433 3.504C156.681 2.704 155.777 2.072 154.721 1.608C153.681 1.144 152.521 0.912 151.241 0.912C149.961 0.912 148.793 1.152 147.737 1.632C146.681 2.096 145.777 2.728 145.025 3.528C144.273 4.328 143.689 5.256 143.273 6.312C142.857 7.352 142.649 8.456 142.649 9.624C142.649 10.792 142.849 11.904 143.249 12.96C143.665 14 144.249 14.92 145.001 15.72C145.753 16.504 146.649 17.128 147.689 17.592C148.745 18.056 149.913 18.288 151.193 18.288C152.473 18.288 153.641 18.056 154.697 17.592C155.753 17.112 156.657 16.472 157.409 15.672C158.161 14.872 158.745 13.952 159.161 12.912C159.577 11.856 159.785 10.744 159.785 9.576ZM157.817 9.624C157.817 10.584 157.649 11.488 157.313 12.336C156.993 13.168 156.545 13.896 155.969 14.52C155.393 15.144 154.697 15.64 153.881 16.008C153.081 16.36 152.201 16.536 151.241 16.536C150.281 16.536 149.393 16.352 148.577 15.984C147.777 15.616 147.081 15.12 146.489 14.496C145.897 13.872 145.433 13.136 145.097 12.288C144.777 11.44 144.617 10.536 144.617 9.576C144.617 8.616 144.777 7.72 145.097 6.888C145.433 6.04 145.889 5.304 146.465 4.68C147.041 4.056 147.729 3.568 148.529 3.216C149.345 2.848 150.233 2.664 151.193 2.664C152.153 2.664 153.033 2.848 153.833 3.216C154.649 3.584 155.353 4.08 155.945 4.704C156.537 5.328 156.993 6.064 157.313 6.912C157.649 7.76 157.817 8.664 157.817 9.624ZM170.195 2.952H175.835V1.2H162.635V2.952H168.275V18H170.195V2.952ZM192.19 10.44V18H194.086V1.2H192.19V8.664H182.494V1.2H180.598V18H182.494V10.44H192.19ZM208.024 1.08H206.248L198.592 18H200.536L202.528 13.56H211.672L213.64 18H215.68L208.024 1.08ZM210.928 11.856H203.272L207.112 3.288L210.928 11.856ZM234.377 4.392V18H236.273V1.2H234.353L228.233 10.368L222.113 1.2H220.193V18H222.041V4.416L228.161 13.392H228.257L234.377 4.392Z" fill="black"/>
</svg>
