<svg width="52" height="52" viewBox="0 0 52 52" fill="none" xmlns="http://www.w3.org/2000/svg">
<path d="M50.5663 25.6124C50.5663 39.1992 39.4768 50.2248 25.7831 50.2248C12.0895 50.2248 1 39.1992 1 25.6124C1 12.0256 12.0895 1 25.7831 1C39.4768 1 50.5663 12.0256 50.5663 25.6124Z" stroke="black" stroke-width="2"/>
<path d="M27.0875 38.4184H22.9586C22.2689 38.4184 21.7079 37.8611 21.7079 37.176V27.9247H19.299C18.6094 27.9247 18.0483 27.3672 18.0483 26.6823V22.7181C18.0483 22.033 18.6094 21.4757 19.299 21.4757H21.7079V19.4905C21.7079 17.5222 22.3301 15.8475 23.507 14.6479C24.6893 13.4429 26.3414 12.806 28.2849 12.806L31.4338 12.8111C32.1223 12.8123 32.6824 13.3696 32.6824 14.0535V17.7342C32.6824 18.4193 32.1215 18.9766 31.4321 18.9766L29.3119 18.9774C28.6654 18.9774 28.5007 19.1061 28.4655 19.1456C28.4075 19.2111 28.3384 19.3961 28.3384 19.9071V21.4755H31.2727C31.4936 21.4755 31.7077 21.5296 31.8916 21.6316C32.2884 21.8518 32.535 22.2682 32.535 22.7182L32.5335 26.6825C32.5335 27.3672 31.9724 27.9245 31.2828 27.9245H28.3384V37.176C28.3384 37.8611 27.7772 38.4184 27.0875 38.4184V38.4184ZM23.2194 36.9169H26.8267V27.2525C26.8267 26.795 27.2014 26.423 27.6617 26.423H31.0219L31.0233 22.9772H27.6615C27.2012 22.9772 26.8267 22.6051 26.8267 22.1477V19.9071C26.8267 19.3205 26.8867 18.6534 27.3324 18.152C27.871 17.5458 28.7198 17.4759 29.3115 17.4759L31.1708 17.4751V14.3122L28.2837 14.3075C25.1604 14.3075 23.2194 16.2937 23.2194 19.4905V22.1477C23.2194 22.6049 22.8449 22.9772 22.3846 22.9772H19.5599V26.423H22.3846C22.8449 26.423 23.2194 26.795 23.2194 27.2525V36.9169ZM31.4309 14.3126H31.4311H31.4309Z" fill="black"/>
</svg>
