<svg width="52" height="52" viewBox="0 0 52 52" fill="none" xmlns="http://www.w3.org/2000/svg">
<path d="M50.5663 25.6124C50.5663 39.1992 39.4768 50.2248 25.7831 50.2248C12.0895 50.2248 1 39.1992 1 25.6124C1 12.0256 12.0895 1 25.7831 1C39.4768 1 50.5663 12.0256 50.5663 25.6124Z" stroke="black" stroke-width="2"/>
<path d="M31.6955 12.806H19.8709C16.0224 12.806 12.8916 15.9161 12.8916 19.7391V31.4856C12.8916 35.3083 16.0224 38.4184 19.8709 38.4184H31.6957C35.5439 38.4184 38.6747 35.3083 38.6747 31.4856V19.7391C38.6747 15.9161 35.5439 12.806 31.6955 12.806V12.806ZM37.1632 31.4856C37.1632 34.4804 34.7104 36.9169 31.6955 36.9169H19.8709C16.8559 36.9169 14.4031 34.4804 14.4031 31.4856V19.7391C14.4031 16.7441 16.8559 14.3075 19.8709 14.3075H31.6957C34.7104 14.3075 37.1632 16.7441 37.1632 19.7391V31.4856Z" fill="black"/>
<path d="M25.7828 18.6091C21.8954 18.6091 18.7329 21.7507 18.7329 25.6123C18.7329 29.474 21.8954 32.6155 25.7828 32.6155C29.6702 32.6155 32.8327 29.474 32.8327 25.6123C32.8327 21.7507 29.6702 18.6091 25.7828 18.6091V18.6091ZM25.7828 31.114C22.7291 31.114 20.2444 28.646 20.2444 25.6123C20.2444 22.5788 22.7291 20.1106 25.7828 20.1106C28.8367 20.1106 31.3212 22.5788 31.3212 25.6123C31.3212 28.646 28.8367 31.114 25.7828 31.114V31.114Z" fill="black"/>
<path d="M33.0016 16.1221C31.8528 16.1221 30.9185 17.0504 30.9185 18.1914C30.9185 19.3326 31.8528 20.261 33.0016 20.261C34.1504 20.261 35.085 19.3326 35.085 18.1914C35.085 17.0503 34.1504 16.1221 33.0016 16.1221ZM33.0016 18.7593C32.6865 18.7593 32.43 18.5045 32.43 18.1914C32.43 17.8782 32.6865 17.6236 33.0016 17.6236C33.3169 17.6236 33.5734 17.8782 33.5734 18.1914C33.5734 18.5045 33.3169 18.7593 33.0016 18.7593Z" fill="black"/>
</svg>
