<svg width="28" height="29" viewBox="0 0 28 29" fill="none" xmlns="http://www.w3.org/2000/svg">
<path d="M20.2283 1H8.32872C4.28767 1 1 4.42193 1 8.62781V21.0128C1 25.2189 4.28767 28.6406 8.32872 28.6406H20.2283C24.2697 28.6406 27.5574 25.2187 27.5574 21.0128V8.62781C27.5575 4.42193 24.2697 1 20.2283 1ZM25.2012 21.0128C25.2012 23.8666 22.9704 26.1882 20.2285 26.1882H8.32872C5.58693 26.1884 3.3563 23.8666 3.3563 21.0128V8.62781C3.3563 5.77419 5.58693 3.45241 8.32872 3.45241H20.2283C22.9703 3.45241 25.2011 5.77419 25.2011 8.62781V21.0128H25.2012Z" fill="black" stroke="white" stroke-width="0.5"/>
<path d="M14.2787 7.69873C10.5053 7.69873 7.43555 10.8936 7.43555 14.8207C7.43555 18.7477 10.5053 21.9424 14.2787 21.9424C18.0521 21.9424 21.1219 18.7477 21.1219 14.8207C21.1219 10.8936 18.0521 7.69873 14.2787 7.69873ZM14.2787 19.4899C11.8048 19.4899 9.79186 17.3953 9.79186 14.8206C9.79186 12.2456 11.8046 10.1509 14.2787 10.1509C16.7529 10.1509 18.7656 12.2456 18.7656 14.8206C18.7656 17.3953 16.7527 19.4899 14.2787 19.4899Z" fill="black" stroke="white" stroke-width="0.5"/>
<path d="M21.4086 5.61865C20.9546 5.61865 20.5087 5.80996 20.1881 6.14515C19.8659 6.4787 19.6807 6.94306 19.6807 7.41724C19.6807 7.88994 19.866 8.35414 20.1881 8.68933C20.5085 9.02288 20.9546 9.21582 21.4086 9.21582C21.8642 9.21582 22.3087 9.02288 22.6308 8.68933C22.9528 8.35414 23.1366 7.88977 23.1366 7.41724C23.1366 6.94306 22.9528 6.4787 22.6308 6.14515C22.3103 5.80996 21.8642 5.61865 21.4086 5.61865Z" fill="black" stroke="white" stroke-width="0.5"/>
</svg>
