<svg width="26" height="26" viewBox="0 0 26 26" fill="none" xmlns="http://www.w3.org/2000/svg">
<path d="M12.6005 2.23557C15.9538 2.23557 16.3603 2.23557 17.6813 2.33718C18.9007 2.4388 19.612 2.64203 20.0185 2.74365C20.6282 2.94688 21.0346 3.25173 21.4411 3.6582C21.8476 4.06467 22.1524 4.47113 22.3557 5.08083C22.5589 5.4873 22.7621 6.19861 22.7621 7.41801C22.8637 8.73903 22.8637 9.1455 22.8637 12.4988C22.8637 15.8522 22.8637 16.2587 22.7621 17.5797C22.6605 18.7991 22.4573 19.5104 22.3557 19.9169C22.1524 20.5266 21.8476 20.933 21.4411 21.3395C21.0346 21.746 20.6282 22.0508 20.0185 22.254C19.612 22.4573 18.9007 22.6605 17.6813 22.6605C16.3603 22.7621 15.9538 22.7621 12.6005 22.7621C9.24711 22.7621 8.84065 22.7621 7.51963 22.6605C6.30023 22.5589 5.58891 22.3557 5.18245 22.254C4.57275 22.0508 4.16628 21.746 3.75982 21.3395C3.35335 20.933 3.0485 20.5266 2.84527 19.9169C2.64203 19.5104 2.4388 18.7991 2.4388 17.5797C2.33718 16.2587 2.33718 15.8522 2.33718 12.4988C2.33718 9.1455 2.33718 8.73903 2.4388 7.41801C2.54042 6.19861 2.74365 5.4873 2.84527 5.08083C3.0485 4.47113 3.35335 4.06467 3.75982 3.6582C4.16628 3.25173 4.57275 2.94688 5.18245 2.74365C5.58891 2.54042 6.30023 2.33718 7.51963 2.33718C8.84065 2.23557 9.24711 2.23557 12.6005 2.23557ZM12.6005 0C9.24711 0 8.73903 0 7.41801 0.101617C6.097 0.203233 5.18245 0.406467 4.36952 0.711316C3.55658 0.91455 2.84527 1.42263 2.13395 2.03233C1.52425 2.74365 1.01617 3.45497 0.711316 4.2679C0.406467 5.08083 0.203233 5.99538 0.101617 7.3164C0 8.63741 0 9.04388 0 12.4988C0 15.8522 0 16.3603 0.101617 17.6813C0.203233 19.0023 0.406467 19.9169 0.711316 20.7298C1.01617 21.5427 1.42263 22.254 2.13395 22.9654C2.84527 23.6767 3.55658 24.0831 4.36952 24.388C5.18245 24.6928 6.097 24.8961 7.41801 24.9977C8.73903 25.0993 9.1455 25.0993 12.6005 25.0993C16.0554 25.0993 16.4619 25.0993 17.7829 24.9977C19.1039 24.8961 20.0185 24.6928 20.8314 24.388C21.6443 24.0831 22.3557 23.6767 23.067 22.9654C23.7783 22.254 24.1848 21.5427 24.4896 20.7298C24.7945 19.9169 24.9977 19.0023 25.0993 17.6813C25.2009 16.3603 25.2009 15.9538 25.2009 12.4988C25.2009 9.04388 25.2009 8.63741 25.0993 7.3164C24.9977 5.99538 24.7945 5.08083 24.4896 4.2679C24.1848 3.45497 23.7783 2.74365 23.067 2.03233C22.3557 1.32102 21.6443 0.91455 20.8314 0.6097C20.0185 0.30485 19.1039 0.101617 17.7829 0C16.4619 0 15.9538 0 12.6005 0Z" fill="black"/>
<path d="M12.6006 6.09705C9.044 6.09705 6.19873 8.94231 6.19873 12.4989C6.19873 16.0555 9.044 18.9007 12.6006 18.9007C16.1572 18.9007 19.0024 16.0555 19.0024 12.4989C19.0024 8.94231 16.1572 6.09705 12.6006 6.09705ZM12.6006 16.6652C10.2634 16.6652 8.4343 14.8361 8.4343 12.4989C8.4343 10.1617 10.2634 8.33261 12.6006 8.33261C14.9378 8.33261 16.7669 10.1617 16.7669 12.4989C16.7669 14.8361 14.9378 16.6652 12.6006 16.6652Z" fill="black"/>
<path d="M19.3072 7.31644C20.149 7.31644 20.8315 6.63401 20.8315 5.79219C20.8315 4.95037 20.149 4.26794 19.3072 4.26794C18.4654 4.26794 17.783 4.95037 17.783 5.79219C17.783 6.63401 18.4654 7.31644 19.3072 7.31644Z" fill="black"/>
</svg>
