<svg width="42" height="39" viewBox="0 0 42 39" fill="none" xmlns="http://www.w3.org/2000/svg">
<path d="M16.3462 0.00519367C16.026 -0.0332847 15.7185 0.144986 15.5936 0.442222L0.0568225 37.3129C-0.0451979 37.5551 -0.00813165 37.8336 0.154254 38.0405C0.316286 38.247 0.577868 38.3497 0.837332 38.308L40.3457 31.9902C40.6645 31.9394 40.9105 31.6834 40.9494 31.3629C42.8147 15.9098 31.7993 1.87051 16.3462 0.00519367ZM14.9628 5.66256C26.7403 8.65469 35.0212 19.209 35.1254 31.3604L20.2936 33.732C19.3422 30.4927 16.1316 28.4654 12.7981 28.9984C9.46424 29.5315 7.04611 32.459 7.15201 35.8334L1.89531 36.674L14.9628 5.66256ZM12.7868 34.1037C12.5376 33.792 12.0825 33.7411 11.7705 33.9904L10.8636 34.7151C10.691 34.8531 10.5911 35.0625 10.5925 35.2834L8.59442 35.6029C8.60395 33.0249 10.4799 30.8334 13.0258 30.4263C15.5713 30.019 18.0371 31.5164 18.8505 33.9628L12.8436 34.9234C12.9968 34.665 12.9742 34.3384 12.7868 34.1037ZM39.5737 30.6491L36.5674 31.1295C36.363 18.485 27.763 7.52399 15.53 4.31653L16.7123 1.51114C30.9147 3.51907 41.0023 16.3765 39.5737 30.6491Z" fill="black"/>
<path d="M18.08 21.7701C18.3218 21.7994 18.565 21.8139 18.8086 21.8139C22.0478 21.8125 24.7 19.2369 24.7967 15.9991C24.8938 12.7609 22.4005 10.0314 19.1669 9.83618C15.933 9.64061 13.1294 12.0499 12.8356 15.2761C12.5416 18.5023 14.8644 21.3783 18.08 21.7701ZM14.2971 15.2923C14.5714 13.0189 16.4981 11.3072 18.7878 11.3022C18.9724 11.3022 19.1567 11.3135 19.3399 11.3358C21.1597 11.5554 22.6681 12.8495 23.1612 14.6149C23.6548 16.3803 23.0363 18.2689 21.5942 19.4003C20.1522 20.5317 18.1707 20.6832 16.5733 19.7837C14.9763 18.8846 14.0779 17.1118 14.2975 15.292L14.2971 15.2923Z" fill="black"/>
<path d="M19.9989 15.6151C20.1631 15.6151 20.3219 15.5593 20.4501 15.4566L21.357 14.7319C21.669 14.4827 21.7199 14.0276 21.4706 13.7159C21.221 13.4039 20.7664 13.353 20.4543 13.6022L19.5471 14.3273C19.307 14.519 19.2145 14.8417 19.3162 15.1315C19.4179 15.4213 19.6918 15.6151 19.9989 15.6151Z" fill="black"/>
<path d="M16.4646 18.3269C16.6164 18.3269 16.7647 18.2789 16.8875 18.1896L17.8894 17.4649C18.2131 17.2308 18.2854 16.779 18.0514 16.4553C17.8173 16.1319 17.3655 16.0595 17.0418 16.2936L16.0399 17.0183C15.7858 17.2022 15.6791 17.5288 15.7762 17.8271C15.8729 18.1257 16.1511 18.3273 16.4649 18.3269H16.4646Z" fill="black"/>
<path d="M19.8449 18.851C20.0941 19.163 20.5491 19.2139 20.8612 18.9646C21.1729 18.715 21.2237 18.2604 20.9745 17.9483L20.2498 17.0414C19.9998 16.7322 19.5473 16.6831 19.2366 16.9313C18.926 17.1794 18.8741 17.6317 19.1201 17.9437L19.8449 18.851Z" fill="black"/>
<path d="M16.8613 15.0627C17.1293 15.3592 17.5864 15.3822 17.8826 15.1146C18.1788 14.8466 18.2021 14.3895 17.9345 14.0933L17.1148 13.1864C16.8472 12.8899 16.3901 12.8669 16.0939 13.1345C15.7974 13.4021 15.7744 13.8596 16.042 14.1558L16.8613 15.0627Z" fill="black"/>
<path d="M15.7338 33.77C15.9114 33.7704 16.0826 33.7051 16.215 33.5864L17.0272 32.8617C17.3234 32.5955 17.3485 32.1398 17.0834 31.8426C16.8179 31.5453 16.3625 31.5189 16.0642 31.7833L15.2519 32.508C15.0281 32.7078 14.9508 33.0248 15.0578 33.3051C15.1647 33.5854 15.4337 33.7704 15.7335 33.7704L15.7338 33.77Z" fill="black"/>
<path d="M13.7479 33.36C14.0412 33.0899 14.0603 32.6328 13.7902 32.3391L12.7813 31.2419C12.5109 30.9482 12.0538 30.9291 11.7597 31.1995C11.466 31.4699 11.4469 31.9271 11.7174 32.2211L12.7263 33.3176C12.9967 33.6113 13.4538 33.6304 13.7475 33.36H13.7479Z" fill="black"/>
<path d="M24.8706 27.8716C25.2783 28.416 25.9063 28.7513 26.5855 28.788C26.6187 28.7894 26.6522 28.7902 26.6857 28.7902C27.8796 28.7658 28.903 27.9299 29.1646 26.7646C29.2899 26.0963 29.113 25.4069 28.6817 24.8816C28.1433 24.1953 27.3621 23.8695 26.5389 23.9871C25.6306 24.1247 24.8607 24.7284 24.5105 25.5781C24.2005 26.3491 24.3319 27.185 24.8706 27.8716ZM25.8519 26.1168C26.0111 25.7479 26.3465 25.4849 26.7429 25.4185C27.0543 25.3741 27.324 25.4941 27.5439 25.7744C27.6022 25.8485 28.0893 26.5139 27.3438 27.0989C26.5964 27.6852 26.0662 27.0537 26.0083 26.9796C25.7877 26.6982 25.7351 26.4077 25.8519 26.1168Z" fill="black"/>
<path d="M9.83142 25.5801C10.2391 26.1244 10.8672 26.4598 11.5463 26.4965C11.5795 26.4979 11.6131 26.4986 11.6463 26.4986C12.8405 26.4742 13.8635 25.6383 14.1255 24.473C14.2356 23.8051 14.0601 23.122 13.6422 22.5897C13.2246 22.0577 12.6022 21.7252 11.9276 21.6736C10.6959 21.6489 9.61749 22.4951 9.3485 23.6971C9.22318 24.3653 9.40004 25.0548 9.83142 25.5801ZM11.169 23.3635C11.9163 22.7771 12.4465 23.4087 12.5044 23.4828C12.5627 23.5566 13.0498 24.222 12.3043 24.807C11.5569 25.393 11.0267 24.7618 10.9685 24.6876C10.9106 24.6135 10.4238 23.9477 11.1693 23.3635H11.169Z" fill="black"/>
</svg>
