<svg width="46" height="35" viewBox="0 0 46 35" fill="none" xmlns="http://www.w3.org/2000/svg">
<path d="M41.3124 11.0742L37.9661 5.91567C37.4697 5.15025 36.5918 4.69535 35.6837 4.7279L35.5234 4.73344C35.5965 3.22059 35.1852 1.71917 34.3388 0.450045L34.039 0L33.5353 0.196635C33.4608 0.225715 31.6946 0.922939 30.3053 2.17164C29.2938 3.08039 28.5581 4.34363 28.2815 4.81929C28.2652 4.84733 28.2511 4.87156 28.2386 4.89303C27.9146 4.76944 27.6452 4.51603 27.5116 4.18161C27.1066 3.17005 26.1016 2.50987 25.0142 2.54241L21.6659 2.63796C20.6837 2.666 19.8103 3.23409 19.3862 4.12068L18.3099 6.3716L13.5786 2.36031C12.8817 1.76937 11.9684 1.53569 11.0728 1.71883C10.1772 1.90231 9.42948 2.47629 9.02063 3.29364C8.84823 3.63879 8.55743 3.91055 8.2019 4.05975L6.13896 4.92488C5.36177 5.25099 4.75905 5.8949 4.48556 6.69217C4.2415 7.40289 4.27958 8.17801 4.58354 8.85827C3.87073 9.37617 3.36807 10.1658 3.23098 11.0746H0V11.7465C0 17.8069 2.35997 23.5041 6.64509 27.7892C10.9302 32.0744 16.6278 34.4343 22.6878 34.4343C28.7478 34.4343 34.4454 32.0744 38.7305 27.7892C43.0156 23.5041 45.3756 17.8069 45.3756 11.7465V11.0746H41.3124V11.0742ZM31.204 3.17143C31.9857 2.46902 32.9357 1.95493 33.5097 1.67901C34.0168 2.62965 34.247 3.70422 34.1736 4.78156L32.818 4.83002L33.3615 3.83369L32.1813 3.18978L31.2563 4.88576L29.7795 4.93838C30.1118 4.41286 30.6103 3.70491 31.204 3.17143ZM28.2625 4.88507L28.2878 4.91034C28.2753 4.90618 28.2628 4.90238 28.2504 4.89822C28.2545 4.89372 28.258 4.88957 28.2625 4.88507ZM20.5993 4.70055C20.8049 4.27093 21.2283 3.99536 21.7043 3.98186L25.0526 3.88631C25.5778 3.87108 26.067 4.19027 26.2632 4.68081C26.6711 5.70034 27.6809 6.35914 28.7793 6.31967L35.7315 6.07145C36.1746 6.05553 36.5973 6.2764 36.8383 6.64717L39.7099 11.0746H35.9177C35.9503 9.88507 35.2849 8.74645 34.1591 8.21644L33.4892 7.90141C33.2653 7.79582 33.0285 7.71793 32.7854 7.66911L31.2954 7.37105C30.064 7.12491 28.8223 7.64384 28.1327 8.69349C27.1862 10.1343 26.7493 10.7824 26.5478 11.0742H25.8146L23.8676 7.93776C23.2569 6.95389 22.1208 6.41522 20.9724 6.56477L19.6237 6.74064L20.5993 4.70055ZM30.7547 10.234V11.0742H28.1704C28.4314 10.6834 28.7818 10.1541 29.2564 9.43191C29.6434 8.84269 30.3403 8.5512 31.0316 8.68968L32.5216 8.9874C32.658 9.01475 32.791 9.05871 32.917 9.11791L33.5865 9.43294C34.2304 9.73586 34.606 10.3936 34.5725 11.0746H32.0989V10.2344H30.7547V10.234ZM5.75711 7.12837C5.9084 6.68732 6.22897 6.34494 6.65894 6.16458L8.72187 5.29945C9.37374 5.02631 9.90722 4.52711 10.2233 3.89497C10.4462 3.44908 10.854 3.13578 11.3425 3.03607C11.8306 2.93602 12.3288 3.06342 12.7093 3.38572L17.4486 7.40428C18.0828 7.94191 18.9192 8.1884 19.7438 8.08108L21.1462 7.89794C21.7728 7.81624 22.3922 8.1105 22.7255 8.6471L24.2322 11.0746H22.6515C22.4441 9.83625 21.3657 8.88977 20.0699 8.88977H17.1419V8.8967C16.1081 8.98221 15.2932 9.85114 15.2932 10.9063V11.0746H14.4035L13.3466 9.80614L14.5212 7.8976L13.3764 7.1931L12.4389 8.71668L11.104 7.11487L10.0713 7.97549L12.6539 11.0746H9.87745C9.63373 9.4596 8.23652 8.21748 6.55439 8.21748C6.29751 8.21748 6.04757 8.24759 5.80697 8.30229C5.64183 7.93049 5.62279 7.51956 5.75711 7.12837ZM19.2114 10.234H20.0696C20.772 10.234 21.3432 10.8056 21.3432 11.5077V13.259C21.3432 13.815 20.8911 14.2675 20.3351 14.2675C19.7791 14.2675 19.3267 13.815 19.3267 13.259V10.9063C19.3267 10.6706 19.2862 10.4445 19.2114 10.234ZM17.9821 11.0742H16.6378V10.9063C16.6378 10.5356 16.9393 10.234 17.3101 10.234C17.6805 10.234 17.9821 10.5356 17.9821 10.9063V11.0742ZM6.55439 9.56173C7.49221 9.56173 8.28256 10.2056 8.50724 11.0742H4.60154C4.82587 10.2056 5.61622 9.56173 6.55439 9.56173ZM37.7799 26.8386C33.7485 30.87 28.3888 33.0901 22.6878 33.0901C16.9868 33.0901 11.6271 30.87 7.59572 26.8386C4.99169 24.2346 3.14478 21.0756 2.16229 17.6286H9.91553V16.284H1.82614C1.7306 15.8399 1.64751 15.3915 1.58035 14.9398H15.9655V13.5952H1.42422C1.39099 13.205 1.3671 12.8131 1.35498 12.4188H17.9824V13.259C17.9824 14.5565 19.0379 15.6121 20.3351 15.6121C21.6323 15.6121 22.6878 14.5565 22.6878 13.259V12.4188H44.021C44.0089 12.8131 43.985 13.205 43.9514 13.5952H24.0324V14.9398H43.7953C43.7281 15.3915 43.645 15.8399 43.5495 16.284H41.5104V17.6286H43.2133C42.2308 21.0756 40.3839 24.2346 37.7799 26.8386Z" fill="black"/>
<path d="M11.2603 16.2839H37.4775V17.6285H11.2603V16.2839Z" fill="black"/>
<path d="M38.8208 16.2839H40.1654V17.6285H38.8208V16.2839Z" fill="black"/>
<path d="M25.377 6.8728H26.7215V8.2174H25.377V6.8728Z" fill="black"/>
<path d="M24.0327 5.52832H25.377V6.87292H24.0327V5.52832Z" fill="black"/>
</svg>
