<svg width="41" height="37" viewBox="0 0 41 37" fill="none" xmlns="http://www.w3.org/2000/svg">
<path d="M40.0998 14.2937H0.679658C0.304317 14.2937 0 14.598 0 14.9734C0 23.6104 4.41438 30.7713 11.5542 33.7815V36.0427C11.5542 36.4181 11.8585 36.7224 12.2338 36.7224H28.5456C28.921 36.7224 29.2253 36.4181 29.2253 36.0427V33.7815C36.3651 30.7713 40.7795 23.6104 40.7795 14.9734C40.7795 14.598 40.4751 14.2937 40.0998 14.2937ZM28.2975 32.6914C28.0372 32.7934 27.866 33.0445 27.866 33.3241V35.3631H12.9135V33.3241C12.9135 33.0445 12.7422 32.7934 12.4819 32.6914C5.81107 30.0747 1.5972 23.5833 1.36951 15.653H39.41C39.1823 23.5833 34.9684 30.0747 28.2975 32.6914Z" fill="black"/>
<path d="M37.5261 17.047C37.1718 16.9673 36.8175 17.1801 36.7215 17.5303L36.5257 18.3139C35.3152 23.1531 32.1412 27.3711 28.2414 29.3203C27.9069 29.4907 27.7739 29.9 27.9444 30.2345C28.0597 30.4609 28.2917 30.604 28.5458 30.6055C28.6508 30.6066 28.7545 30.5834 28.849 30.5376C33.0934 28.415 36.5407 23.8579 37.8442 18.6436L38.04 17.8592C38.1224 17.4931 37.8923 17.1294 37.5261 17.047Z" fill="black"/>
<path d="M14.5444 4.14325C14.1982 3.35323 14.1833 2.45744 14.5029 1.65638L14.7972 0.968568C14.9567 0.628739 14.8105 0.224003 14.4706 0.0645387C14.1308 -0.094926 13.7261 0.0512853 13.5666 0.391114C13.5602 0.404877 13.5542 0.41881 13.5487 0.432913L13.2537 1.12081C12.7757 2.28294 12.8003 3.5912 13.3217 4.73455C13.6679 5.52457 13.6828 6.42036 13.3631 7.22142L13.0689 7.90923C12.9094 8.24906 13.0556 8.6538 13.3954 8.81326C13.7353 8.97273 14.14 8.82651 14.2995 8.48669C14.3059 8.47292 14.3119 8.45899 14.3174 8.44489L14.6124 7.75707C15.0904 6.59486 15.0658 5.2866 14.5444 4.14325Z" fill="black"/>
<path d="M20.6611 4.14325C20.3149 3.35323 20.3 2.45744 20.6196 1.65638L20.9139 0.968568C21.0734 0.62874 20.9272 0.224003 20.5873 0.0645387C20.2475 -0.094926 19.8428 0.0512853 19.6833 0.391114C19.6769 0.404877 19.6709 0.41881 19.6654 0.432913L19.3704 1.12081C18.8924 2.28294 18.917 3.5912 19.4384 4.73455C19.7846 5.52457 19.7995 6.42036 19.4798 7.22142L19.1856 7.90923C19.0261 8.24906 19.1723 8.6538 19.5121 8.81326C19.852 8.97273 20.2567 8.82643 20.4162 8.48669C20.4226 8.47292 20.4286 8.45899 20.4341 8.44489L20.7291 7.75707C21.2071 6.59486 21.1825 5.2866 20.6611 4.14325Z" fill="black"/>
<path d="M26.7778 4.14324C26.4316 3.35322 26.4167 2.45743 26.7363 1.65637L27.0306 0.968554C27.1901 0.628726 27.0438 0.223989 26.704 0.0645247C26.3642 -0.09494 25.9595 0.0513563 25.8 0.3911C25.7936 0.404863 25.7876 0.418796 25.7821 0.432899L25.4871 1.1208C25.0091 2.28293 25.0337 3.59118 25.5551 4.73454C25.9013 5.52455 25.9162 6.42034 25.5965 7.22141L25.3023 7.90922C25.1428 8.24905 25.289 8.65378 25.6288 8.81325C25.9687 8.97271 26.3734 8.82642 26.5329 8.48667C26.5393 8.47291 26.5453 8.45898 26.5508 8.44487L26.8458 7.75706C27.3238 6.59485 27.2992 5.28659 26.7778 4.14324Z" fill="black"/>
</svg>
