<svg width="273" height="34" viewBox="0 0 273 34" fill="none" xmlns="http://www.w3.org/2000/svg">
<path d="M9.57031 0.414062C11.3828 0.414062 12.6953 1.40625 13.5078 3.39062C13.6641 3.70312 13.7422 4.14062 13.7422 4.70312V8.875C13.7422 9.03125 13.6641 9.10938 13.5078 9.10938H9.92188C9.76562 9.10938 9.6875 9.03125 9.6875 8.875V5.66406C9.5625 4.78906 9.125 4.35156 8.375 4.35156H6.00781C5.13281 4.47656 4.69531 4.91406 4.69531 5.66406V9.95312C4.69531 10.5469 5.96094 11.4922 8.49219 12.7891C11.9141 14.6953 13.625 16.1641 13.625 17.1953L13.7422 17.9219V26.9688C13.7422 28.625 12.6719 29.8984 10.5312 30.7891C10.2188 30.8672 9.89844 30.9062 9.57031 30.9062H4.8125C2.85938 30.9062 1.46875 29.7109 0.640625 27.3203V20.1953C0.671875 20.0234 0.75 19.9375 0.875 19.9375H4.46094C4.61719 19.9688 4.69531 20.0547 4.69531 20.1953V25.6562C4.82031 26.5312 5.25781 26.9688 6.00781 26.9688H8.25781C9.21094 26.8906 9.6875 26.4531 9.6875 25.6562V18.8828C9.6875 18.2734 8.5 17.3984 6.125 16.2578C2.73437 14.2891 0.984375 12.8984 0.875 12.0859C0.71875 11.5391 0.640625 11.0625 0.640625 10.6562V4.70312C0.640625 2.64062 1.82812 1.21094 4.20312 0.414062H9.57031ZM14.2109 3.50781C15.6484 4.72656 16.3672 5.60156 16.3672 6.13281C16.2578 6.13281 15.5391 5.41406 14.2109 3.97656V3.50781ZM6.47656 4.9375H7.0625C7.17188 4.9375 7.85156 5.60938 9.10156 6.95312V7.44531H8.86719C8.75781 7.44531 7.96094 6.64844 6.47656 5.05469V4.9375ZM7.90625 4.9375H8.49219C8.60156 4.9375 8.80469 5.14063 9.10156 5.54688V6.13281H8.98438C8.875 6.13281 8.51562 5.77344 7.90625 5.05469V4.9375ZM5.63281 5.05469C5.74219 5.05469 6.61719 5.92969 8.25781 7.67969C8.25781 7.83594 8.17969 7.91406 8.02344 7.91406H7.90625C7.79688 7.91406 6.96094 7.07812 5.39844 5.40625V5.28906C5.42969 5.13281 5.50781 5.05469 5.63281 5.05469ZM14.3281 5.05469H14.4453C14.5547 5.05469 15.3516 5.85156 16.8359 7.44531V7.91406H16.7188C16.6094 7.91406 15.8125 7.125 14.3281 5.54688V5.05469ZM5.28125 6.25H5.39844C5.50781 6.25 6.30469 7.04688 7.78906 8.64062V9.22656H7.67188C7.5625 9.22656 6.76562 8.42969 5.28125 6.83594V6.25ZM14.3281 6.48438H14.4453C14.5547 6.48438 15.3516 7.28125 16.8359 8.875V9.22656C16.8359 9.38281 16.7578 9.46094 16.6016 9.46094C15.0859 7.91406 14.3281 7.07812 14.3281 6.95312V6.48438ZM5.28125 7.67969H5.39844C5.50781 7.67969 6.30469 8.47656 7.78906 10.0703V10.6562H7.67188C7.5625 10.6562 6.76562 9.85938 5.28125 8.26562V7.67969ZM14.3281 7.91406H14.4453C14.5547 7.91406 15.3516 8.71094 16.8359 10.3047V10.8906H16.7188C16.6094 10.8906 15.8125 10.1016 14.3281 8.52344V7.91406ZM5.28125 9.22656H5.39844C5.50781 9.22656 6.30469 10.0234 7.78906 11.6172C7.71094 11.6172 7.67188 11.6562 7.67188 11.7344C7.07812 11.5312 6.28125 10.8516 5.28125 9.69531V9.22656ZM14.5859 9.46094L16.8359 11.8516V11.9688C16.8359 12.125 16.7578 12.2031 16.6016 12.2031C16.4922 12.2031 15.6562 11.3672 14.0938 9.69531V9.57812L14.5859 9.46094ZM11.3516 9.57812H11.7266C11.8203 9.57812 12.6484 10.4141 14.2109 12.0859L13.9766 12.2031H13.625C13.5156 12.2031 12.6797 11.3672 11.1172 9.69531L11.3516 9.57812ZM12.7812 9.57812H13.1562C13.25 9.57812 14.0781 10.4141 15.6406 12.0859V12.2031H15.0547C14.9453 12.2031 14.1094 11.3672 12.5469 9.69531L12.7812 9.57812ZM4.20312 15.7891H4.46094C4.64844 15.7891 5.16406 16.2578 6.00781 17.1953H5.77344C5.57031 17.1953 5.04688 16.7266 4.20312 15.7891ZM14.2109 17.1953H14.3281C14.4375 17.1953 14.9141 17.6719 15.7578 18.625V18.7656C15.6484 18.7656 15.1328 18.2422 14.2109 17.1953ZM7.17969 17.5703H7.4375C8.40625 18.1016 8.96094 18.5 9.10156 18.7656V18.8828L8.98438 19.1172C8.54688 18.9609 7.94531 18.4453 7.17969 17.5703ZM14.3281 18.2734H14.4453C16.0391 19.6484 16.8359 20.5625 16.8359 21.0156V21.1328H16.7188C16.6094 21.1328 15.8125 20.3438 14.3281 18.7656V18.2734ZM14.3281 19.7031H14.4453C14.5547 19.7031 15.3516 20.5 16.8359 22.0938V22.6797H16.7188C16.6094 22.6797 15.8125 21.8906 14.3281 20.3125V19.7031ZM5.28125 21.0156H5.39844C5.50781 21.0156 6.30469 21.8125 7.78906 23.4062V23.875H7.67188C7.5625 23.875 6.76562 23.0781 5.28125 21.4844V21.0156ZM14.3281 21.1328H14.4453C14.5547 21.1328 15.3516 21.9297 16.8359 23.5234V24.1094H16.7188C16.6094 24.1094 15.8125 23.3203 14.3281 21.7422V21.1328ZM5.28125 22.4453H5.39844C5.50781 22.4453 6.30469 23.2422 7.78906 24.8359V25.3047H7.67188C7.5625 25.3047 6.76562 24.5078 5.28125 22.9141V22.4453ZM14.3281 22.6797H14.4453C14.5547 22.6797 15.3516 23.4766 16.8359 25.0703V25.5391H16.7188C16.6094 25.5391 15.8125 24.75 14.3281 23.1719V22.6797ZM5.28125 23.875H5.39844C5.50781 23.875 6.30469 24.6719 7.78906 26.2656C7.78906 26.4219 7.67188 26.5 7.4375 26.5C7.21875 26.5 6.5 25.8203 5.28125 24.4609V23.875ZM14.3281 24.1094H14.4453C14.5547 24.1094 15.3516 24.9062 16.8359 26.5V27.0859H16.7188C16.6094 27.0859 15.8125 26.2969 14.3281 24.7188V24.1094ZM5.28125 25.4219H5.39844C5.52344 25.4219 5.80469 25.7031 6.24219 26.2656V26.3828H5.77344C5.64844 26.3828 5.48438 26.2188 5.28125 25.8906V25.4219ZM14.3281 25.6562H14.4453C14.5547 25.6562 15.3516 26.4531 16.8359 28.0469V28.5156H16.7188C16.6094 28.5156 15.8125 27.7266 14.3281 26.1484V25.6562ZM14.4453 26.9688L16.8359 29.4766V29.9453H16.7188C16.6094 29.9453 15.7734 29.1172 14.2109 27.4609V27.2031C14.2422 27.0469 14.3203 26.9688 14.4453 26.9688ZM14.2109 28.1641L16.7188 30.7891C16.5938 31.1016 16.4766 31.2578 16.3672 31.2578L13.8594 28.6328V28.5156C13.8594 28.4062 13.9766 28.2891 14.2109 28.1641ZM13.625 29.2422C13.7344 29.2422 14.6094 30.1172 16.25 31.8672C16.25 31.9766 16.125 32.0938 15.875 32.2188L13.3906 29.5938V29.4766C13.4062 29.3203 13.4844 29.2422 13.625 29.2422ZM12.8984 30.0625H13.0156C13.125 30.0625 13.9609 30.8984 15.5234 32.5703V32.6875C15.5234 32.8438 15.4453 32.9219 15.2891 32.9219L12.5469 30.2969L12.8984 30.0625ZM12.0781 30.6719H12.1953C12.3047 30.6719 13.1797 31.5469 14.8203 33.2969L14.4453 33.5312H14.3281C14.2344 33.5312 13.3672 32.6562 11.7266 30.9062L12.0781 30.6719ZM11.2344 31.1406L13.7422 33.7656V33.8828H13.2734C13.1641 33.8828 12.3281 33.0469 10.7656 31.375V31.2578C10.7969 31.2578 10.9531 31.2188 11.2344 31.1406ZM3.73438 31.375H4.08594C4.19531 31.375 4.875 32.0547 6.125 33.4141V33.5312C5.8125 33.5312 5.01562 32.8125 3.73438 31.375ZM10.0391 31.375L12.4297 33.8828V34H11.8438C11.7344 34 10.9375 33.2031 9.45312 31.6094V31.4922L10.0391 31.375ZM5.04688 31.4922H5.63281C5.74219 31.4922 6.53906 32.2891 8.02344 33.8828V34H7.4375C7.32812 34 6.53125 33.2031 5.04688 31.6094V31.4922ZM6.59375 31.4922H7.0625C7.17188 31.4922 7.96875 32.2891 9.45312 33.8828V34H8.98438C8.875 34 8.07812 33.2031 6.59375 31.6094V31.4922ZM8.02344 31.4922H8.60938C8.71875 31.4922 9.51562 32.2891 11 33.8828V34H10.4141C10.3047 34 9.50781 33.2031 8.02344 31.6094V31.4922ZM19.2969 0.414062H22.8828C23.0391 0.445312 23.1172 0.523438 23.1172 0.648438V25.7734C23.1172 26.4922 23.5938 26.8906 24.5469 26.9688H26.7969C27.6719 26.9688 28.1094 26.3359 28.1094 25.0703V0.648438C28.1406 0.492187 28.2188 0.414062 28.3438 0.414062H31.9297C32.0859 0.445312 32.1641 0.523438 32.1641 0.648438V26.2656C32.1641 28.625 30.9766 30.1719 28.6016 30.9062H23.2344C21.0469 30.9062 19.6562 29.6328 19.0625 27.0859V0.648438C19.0938 0.492187 19.1719 0.414062 19.2969 0.414062ZM23.7031 1.11719H23.8203C23.9766 1.14844 24.0547 1.23438 24.0547 1.375V1.49219C23.9453 1.49219 23.8281 1.36719 23.7031 1.11719ZM32.75 1.11719C32.8594 1.11719 33.6562 1.91406 35.1406 3.50781V3.625C35.0312 3.625 34.2344 2.83594 32.75 1.25781V1.11719ZM23.8203 1.84375L26.2109 4.35156V4.9375H26.0938C25.9844 4.9375 25.1484 4.10156 23.5859 2.42969V2.07812C23.6172 1.92187 23.6953 1.84375 23.8203 1.84375ZM32.8672 2.07812L35.2578 4.58594V4.9375C35.2578 5.09375 35.1797 5.17188 35.0234 5.17188L32.6328 2.6875V2.3125C32.6641 2.15625 32.7422 2.07812 32.8672 2.07812ZM23.5859 3.39062H23.7031C23.8125 3.39062 24.6484 4.22656 26.2109 5.89844V6.36719H26.0938C25.9844 6.36719 25.1484 5.53125 23.5859 3.85938V3.39062ZM32.6328 3.625H32.75C32.8594 3.625 33.6953 4.46094 35.2578 6.13281V6.60156H35.1406C35.0312 6.60156 34.1953 5.77344 32.6328 4.11719V3.625ZM23.5859 4.82031H23.7031C23.8125 4.82031 24.6484 5.65625 26.2109 7.32812V7.67969C26.2109 7.83594 26.1328 7.91406 25.9766 7.91406L23.5859 5.40625V4.82031ZM32.8672 5.05469L35.2578 7.5625V7.91406C35.2578 8.07031 35.1797 8.14844 35.0234 8.14844C35.0234 8.05469 34.3516 7.34375 33.0078 6.01562L32.6328 5.66406V5.28906C32.6641 5.13281 32.7422 5.05469 32.8672 5.05469ZM23.8203 6.25L26.2109 8.75781V9.34375H26.0938C25.9844 9.34375 25.1484 8.50781 23.5859 6.83594V6.48438C23.6172 6.32812 23.6953 6.25 23.8203 6.25ZM32.8672 6.48438L35.2578 8.99219V9.57812H35.1406C35.0312 9.57812 34.1953 8.75 32.6328 7.09375V6.71875C32.6641 6.5625 32.7422 6.48438 32.8672 6.48438ZM23.5859 7.79688H23.7031C23.8125 7.79688 24.6484 8.63281 26.2109 10.3047V10.7734H26.0938C25.9844 10.7734 25.1484 9.9375 23.5859 8.26562V7.79688ZM32.6328 8.03125H32.75C32.8594 8.03125 33.6953 8.86719 35.2578 10.5391V11.0078H35.1406C35.0312 11.0078 34.1953 10.1797 32.6328 8.52344V8.03125ZM23.5859 9.22656H23.7031C23.8125 9.22656 24.6484 10.0625 26.2109 11.7344V12.0859C26.2109 12.2422 26.1328 12.3203 25.9766 12.3203L23.5859 9.8125V9.22656ZM32.6328 9.46094H32.75C32.8594 9.46094 33.6953 10.2969 35.2578 11.9688V12.3203C35.2578 12.4766 35.1797 12.5547 35.0234 12.5547L32.6328 10.0703V9.46094ZM23.8203 10.6562L26.2109 13.1641V13.75H26.0938C25.9844 13.75 25.1484 12.9141 23.5859 11.2422V10.8906C23.6172 10.7344 23.6953 10.6562 23.8203 10.6562ZM32.8672 10.8906L35.2578 13.3984V13.9844H35.1406C35.0312 13.9844 34.1953 13.1562 32.6328 11.5V11.125C32.6641 10.9688 32.7422 10.8906 32.8672 10.8906ZM23.5859 12.2031H23.7031C23.8125 12.2031 24.6484 13.0391 26.2109 14.7109V15.1797H26.0938C25.9844 15.1797 25.1484 14.3438 23.5859 12.6719V12.2031ZM32.6328 12.4375H32.75C32.8594 12.4375 33.6953 13.2734 35.2578 14.9453V15.4141H35.1406C35.0312 15.4141 34.1953 14.5859 32.6328 12.9297V12.4375ZM23.5859 13.6328H23.7031C23.8125 13.6328 24.6484 14.4688 26.2109 16.1406V16.4922C26.2109 16.6484 26.1328 16.7266 25.9766 16.7266L23.5859 14.2188V13.6328ZM32.6328 13.8672H32.75C32.8594 13.8672 33.6953 14.7031 35.2578 16.375V16.7266C35.2578 16.8828 35.1797 16.9609 35.0234 16.9609L32.6328 14.4766V13.8672ZM23.5859 15.1797H23.7031C24.3438 15.6797 25.1797 16.5156 26.2109 17.6875V18.1562H26.0938C25.9844 18.1562 25.1484 17.3203 23.5859 15.6484V15.1797ZM32.8672 15.2969L35.2578 17.8047V18.3906H35.1406C35.0312 18.3906 34.1953 17.5625 32.6328 15.9062V15.5312C32.6641 15.375 32.7422 15.2969 32.8672 15.2969ZM23.5859 16.6094H23.7031C23.8125 16.6094 24.6484 17.4453 26.2109 19.1172V19.5859H26.0938C25.9844 19.5859 25.1484 18.75 23.5859 17.0781V16.6094ZM32.6328 16.8438H32.75C32.8594 16.8438 33.6953 17.6797 35.2578 19.3516V19.8203H35.1406C35.0312 19.8203 34.1953 18.9922 32.6328 17.3359V16.8438ZM23.8203 18.0391L26.2109 20.5469V20.8984C26.2109 21.0547 26.1328 21.1328 25.9766 21.1328L23.5859 18.625V18.2734C23.6172 18.1172 23.6953 18.0391 23.8203 18.0391ZM32.6328 18.2734H32.75C32.8594 18.2734 33.6953 19.1094 35.2578 20.7812V21.1328C35.2578 21.2891 35.1797 21.3672 35.0234 21.3672L32.6328 18.8828V18.2734ZM23.5859 19.5859H23.7031C23.8125 19.5859 24.6484 20.4219 26.2109 22.0938V22.5625H26.0938C25.9844 22.5625 25.1484 21.7266 23.5859 20.0547V19.5859ZM32.8672 19.7031L35.2578 22.2109V22.7969H35.1406C35.0312 22.7969 34.1953 21.9688 32.6328 20.3125V19.9375C32.6641 19.7812 32.7422 19.7031 32.8672 19.7031ZM23.5859 21.0156H23.7031C23.8125 21.0156 24.6484 21.8516 26.2109 23.5234V23.9922H26.0938C25.9844 23.9922 25.1484 23.1562 23.5859 21.4844V21.0156ZM32.6328 21.25H32.75C32.8594 21.25 33.6953 22.0859 35.2578 23.7578V24.2266H35.1406C35.0312 24.2266 34.1953 23.3984 32.6328 21.7422V21.25ZM23.8203 22.4453L26.2109 24.9531V25.3047C26.2109 25.4609 26.1328 25.5391 25.9766 25.5391L23.5859 23.0312V22.6797C23.6172 22.5234 23.6953 22.4453 23.8203 22.4453ZM32.6328 22.6797H32.75C32.8594 22.6797 33.6953 23.5156 35.2578 25.1875V25.5391C35.2578 25.6953 35.1797 25.7734 35.0234 25.7734L32.6328 23.2891V22.6797ZM23.5859 23.9922H23.7031C23.8125 23.9922 24.5703 24.75 25.9766 26.2656V26.3828H25.4844C25.3906 26.3828 24.7578 25.7422 23.5859 24.4609V23.9922ZM32.6328 24.2266H32.75C32.8906 24.2266 33.7266 25.0625 35.2578 26.7344V27.2031H35.1406C35.0312 27.2031 34.1953 26.375 32.6328 24.7188V24.2266ZM23.5859 25.4219H23.7031C23.8125 25.4219 24.1328 25.7422 24.6641 26.3828C24.5859 26.3828 24.5469 26.4219 24.5469 26.5C23.9062 26.4219 23.5859 26.1016 23.5859 25.5391V25.4219ZM32.6328 25.6562H32.75C32.8594 25.6562 33.6953 26.4922 35.2578 28.1641V28.6328H35.1406C35.0312 28.6328 34.1953 27.8047 32.6328 26.1484V25.6562ZM32.6328 27.0859H32.75C32.8594 27.0859 33.6953 27.9219 35.2578 29.5938V29.9453C35.2578 30.1016 35.1797 30.1797 35.0234 30.1797L32.5156 27.5781C32.5938 27.4375 32.6328 27.2734 32.6328 27.0859ZM32.2812 28.2812H32.5156C33.1719 28.8281 34.0078 29.7031 35.0234 30.9062V31.0234C35.0234 31.1797 34.9453 31.2578 34.7891 31.2578C34.6797 31.2578 33.8438 30.4219 32.2812 28.75V28.2812ZM31.9297 29.2422C32.0391 29.2422 32.9141 30.1172 34.5547 31.8672V31.9844C34.5547 32.1406 34.4688 32.2188 34.2969 32.2188C34.2031 32.2188 33.3359 31.3438 31.6953 29.5938V29.4766C31.7109 29.3203 31.7891 29.2422 31.9297 29.2422ZM31.2031 30.0625H31.3203C31.4297 30.0625 32.3047 30.9375 33.9453 32.6875C33.9453 32.7969 33.8281 32.9141 33.5938 33.0391C33.4844 33.0391 32.6094 32.1719 30.9688 30.4375V30.2969C31 30.1406 31.0781 30.0625 31.2031 30.0625ZM30.1484 30.7891H30.5C30.6094 30.7891 31.4453 31.625 33.0078 33.2969V33.5312H32.6328C32.5391 33.5312 31.7109 32.6953 30.1484 31.0234V30.7891ZM29.5391 31.1406L32.0469 33.7656V33.8828L31.4375 34L28.9531 31.375C29.2031 31.2188 29.3984 31.1406 29.5391 31.1406ZM22.1562 31.375H22.2734C22.3828 31.375 22.9766 31.9688 24.0547 33.1562H23.9375C23.75 33.1562 23.1562 32.6016 22.1562 31.4922V31.375ZM23.3516 31.4922H23.9375C24.0469 31.4922 24.8438 32.2891 26.3281 33.8828V34H25.7422C25.6328 34 24.8359 33.2031 23.3516 31.6094V31.4922ZM24.7812 31.4922H25.3672C25.4766 31.4922 26.2734 32.2891 27.7578 33.8828V34H27.1719C27.0625 34 26.2656 33.2031 24.7812 31.6094V31.4922ZM26.3281 31.4922H26.7969C26.9062 31.4922 27.7031 32.2891 29.1875 33.8828V34H28.7188C28.6094 34 27.8125 33.2031 26.3281 31.6094V31.4922ZM27.7578 31.4922H28.3438C28.4531 31.4922 29.25 32.2891 30.7344 33.8828V34H30.1484C30.0391 34 29.2422 33.2031 27.7578 31.6094V31.4922ZM38.4688 0.460938H42.3828C42.5391 0.460938 44.1172 5.875 47.1172 16.7031H47.2344V0.695312C47.2656 0.539062 47.3438 0.460938 47.4688 0.460938H51.0312C51.1875 0.492187 51.2656 0.570313 51.2656 0.695312V30.6719C51.2656 30.8438 51.1875 30.9297 51.0312 30.9297H47.2344C46.9531 30.7422 46.0859 27.8906 44.6328 22.375C44.5547 22.375 43.8047 19.7734 42.3828 14.5703H42.2656V30.6719C42.2656 30.8438 42.1875 30.9297 42.0312 30.9297H38.4688C38.3125 30.9297 38.2344 30.8438 38.2344 30.6719V0.695312C38.2656 0.539062 38.3438 0.460938 38.4688 0.460938ZM51.875 2.125H51.9922C52.0859 2.125 52.875 2.91406 54.3594 4.49219V5.07812H54.2422C54.1016 5.04688 53.3125 4.21875 51.875 2.59375V2.125ZM43.8125 2.71094C45.3906 4.02344 46.1797 5.00781 46.1797 5.66406H46.0625C44.5625 4.42969 43.8125 3.48438 43.8125 2.82812V2.71094ZM51.875 3.53125H51.9922C52.0859 3.53125 52.875 4.32812 54.3594 5.92188V6.50781H54.2422C54.1328 6.50781 53.3438 5.71875 51.875 4.14062V3.53125ZM44.2812 4.72656H44.3984C45.9766 6.10156 46.7656 7.04688 46.7656 7.5625L46.5312 7.67969C45.0312 6.25781 44.2812 5.27344 44.2812 4.72656ZM51.875 5.07812H51.9922C52.0859 5.07812 52.875 5.86719 54.3594 7.44531V7.9375H54.2422C54.1328 7.9375 53.3438 7.14062 51.875 5.54688V5.07812ZM51.875 6.50781H51.9922C52.0859 6.50781 52.875 7.29688 54.3594 8.875V9.46094H54.2422C54.1328 9.46094 53.3438 8.67187 51.875 7.09375V6.50781ZM44.9844 6.85938C45.0938 6.85938 45.6875 7.45312 46.7656 8.64062V9.10938H46.6484C45.5391 8.26562 44.9844 7.51562 44.9844 6.85938ZM51.875 7.9375H51.9922C52.0859 7.9375 52.875 8.72656 54.3594 10.3047V10.8906H54.2422C54.1328 10.8906 53.3438 10.1016 51.875 8.52344V7.9375ZM45.5938 8.875C45.6875 8.875 46.0781 9.27344 46.7656 10.0703V10.4219C46.7656 10.5781 46.6875 10.6562 46.5312 10.6562C45.9062 10.0781 45.5938 9.52344 45.5938 8.99219V8.875ZM51.875 9.46094H51.9922C52.0859 9.46094 52.875 10.25 54.3594 11.8281V12.3203H54.2422C54.1328 12.3203 53.3438 11.5312 51.875 9.95312V9.46094ZM46.2969 10.8906L46.7656 11.4766V12.0859H46.6484C46.4609 12.0859 46.2656 11.7266 46.0625 11.0078L46.2969 10.8906ZM51.875 10.8906H51.9922C52.0859 10.8906 52.875 11.6797 54.3594 13.2578V13.8438H54.2422C54.1328 13.8438 53.3438 13.0547 51.875 11.4766V10.8906ZM51.875 12.3203H51.9922C52.0859 12.3203 52.875 13.1094 54.3594 14.6875V15.2734H54.2422C54.1328 15.2734 53.3438 14.4844 51.875 12.9062V12.3203ZM51.875 13.8438H51.9922C52.0859 13.8438 52.875 14.6406 54.3594 16.2344V16.7031H54.2422C54.1328 16.7031 53.3438 15.9141 51.875 14.3359V13.8438ZM51.875 15.2734H51.9922C52.0859 15.2734 52.875 16.0625 54.3594 17.6406V18.2266H54.2422C54.1328 18.2266 53.3438 17.4375 51.875 15.8594V15.2734ZM51.875 16.7031H51.9922C52.0859 16.7031 52.875 17.4922 54.3594 19.0703V19.6562H54.2422C54.1328 19.6562 53.3438 18.8672 51.875 17.2891V16.7031ZM51.875 18.2266H51.9922C52.0859 18.2266 52.875 19.0234 54.3594 20.6172V21.0859H54.2422C54.1328 21.0859 53.3438 20.2969 51.875 18.7188V18.2266ZM42.8516 19.4219H42.9688C43.2031 19.4219 43.3594 19.7812 43.4375 20.5H43.3203C43.2109 20.5 43.0547 20.3359 42.8516 20.0078V19.4219ZM51.875 19.6562H51.9922C52.0859 19.6562 52.875 20.4453 54.3594 22.0234V22.6328H54.2422C54.1328 22.6328 53.3438 21.8359 51.875 20.2422V19.6562ZM42.8516 20.9688H42.9688C43.6875 21.4688 44.0469 21.9844 44.0469 22.5156H43.9297C43.8203 22.5156 43.4609 22.1562 42.8516 21.4375V20.9688ZM51.875 21.0859H51.9922C52.0859 21.0859 52.875 21.875 54.3594 23.4531V24.0391H54.2422C54.1328 24.0391 53.3438 23.25 51.875 21.6719V21.0859ZM42.8516 22.375H42.9688C44.0781 23.2188 44.6328 23.9766 44.6328 24.6484C44.1484 24.3516 43.5547 23.7969 42.8516 22.9844V22.375ZM51.875 22.6328H51.9922C52.0859 22.6328 52.875 23.4219 54.3594 25V25.4688H54.2422C54.1328 25.4688 53.3438 24.6797 51.875 23.1016V22.6328ZM42.8516 23.8047H42.9688C44.4688 25.0078 45.2188 26 45.2188 26.7812C45.125 26.7812 44.3359 25.9844 42.8516 24.3906V23.8047ZM51.875 24.0391H51.9922C52.0859 24.0391 52.875 24.8281 54.3594 26.4062V27.0156H54.2422C54.1328 27.0156 53.3438 26.2266 51.875 24.6484V24.0391ZM42.8516 25.3516H42.9688C43.0781 25.3516 43.8672 26.1406 45.3359 27.7188V28.1875H45.2188C45.125 28.1875 44.3359 27.3984 42.8516 25.8203V25.3516ZM51.875 25.5859H51.9922C52.0859 25.5859 52.875 26.375 54.3594 27.9531V28.4219H54.2422C54.1328 28.4219 53.3438 27.6328 51.875 26.0547V25.5859ZM42.8516 26.7812H42.9688C43.0781 26.7812 43.8672 27.5703 45.3359 29.1484V29.7344H45.2188C45.125 29.7344 44.3359 28.9453 42.8516 27.3672V26.7812ZM51.875 27.0156H51.9922C52.0859 27.0156 52.875 27.8047 54.3594 29.3828V29.8516H54.2422C54.1328 29.8516 53.3438 29.0625 51.875 27.4844V27.0156ZM42.8516 28.1875H42.9688C43.0781 28.1875 43.8672 28.9766 45.3359 30.5547V31.1641H45.2188C45.125 31.1641 44.3359 30.375 42.8516 28.7969V28.1875ZM51.875 28.4219H51.9922C52.0859 28.4219 52.875 29.2109 54.3594 30.7891V31.3984H54.2422C54.1328 31.3984 53.3438 30.6094 51.875 29.0312V28.4219ZM42.8516 29.7344H42.9688C43.0781 29.7344 43.8672 30.5234 45.3359 32.1016V32.5703H45.2188C45.125 32.5703 44.3359 31.7812 42.8516 30.2031V29.7344ZM51.875 29.9688H51.9922C52.0859 29.9688 52.875 30.7578 54.3594 32.3359V32.8047H54.2422C54.1328 32.8047 53.3438 32.0156 51.875 30.4375V29.9688ZM42.8516 31.1641H42.9688C43.0781 31.1641 43.8672 31.9531 45.3359 33.5312V33.7656C45.3359 33.9219 45.2578 34 45.1016 34C45.0078 34 44.1797 33.1719 42.6172 31.5156C42.7734 31.5156 42.8516 31.3984 42.8516 31.1641ZM39.7812 31.3984H40.25C40.3594 31.3984 41.1875 32.2266 42.7344 33.8828V34H42.2656C42.1562 34 41.3281 33.1719 39.7812 31.5156V31.3984ZM41.4453 31.3984H41.7969C41.8906 31.3984 42.7188 32.2266 44.2812 33.8828L44.0469 34H43.6953C43.5859 34 42.75 33.1719 41.1875 31.5156L41.4453 31.3984ZM48.5469 31.3984H49.0156C49.125 31.3984 49.9531 32.2266 51.5 33.8828V34H51.0312C50.9219 34 50.0938 33.1719 48.5469 31.5156V31.3984ZM50.2109 31.3984H50.5625C50.6719 31.3984 51.5 32.2266 53.0469 33.8828L52.8125 34H52.4609C52.3516 34 51.5234 33.1719 49.9766 31.5156L50.2109 31.3984ZM51.6172 31.3984H51.9922C52.0859 31.3984 52.875 32.1875 54.3594 33.7656C54.3594 33.9219 54.2812 34 54.125 34H53.8672L51.3828 31.5156L51.6172 31.3984ZM65.3984 0.414062C67.2109 0.414062 68.5234 1.40625 69.3359 3.39062C69.4922 3.70312 69.5703 4.14062 69.5703 4.70312V8.875C69.5703 9.03125 69.4922 9.10938 69.3359 9.10938H65.75C65.5938 9.10938 65.5156 9.03125 65.5156 8.875V5.66406C65.3906 4.78906 64.9531 4.35156 64.2031 4.35156H61.8359C60.9609 4.47656 60.5234 4.91406 60.5234 5.66406V9.95312C60.5234 10.5469 61.7891 11.4922 64.3203 12.7891C67.7422 14.6953 69.4531 16.1641 69.4531 17.1953L69.5703 17.9219V26.9688C69.5703 28.625 68.5 29.8984 66.3594 30.7891C66.0469 30.8672 65.7266 30.9062 65.3984 30.9062H60.6406C58.6875 30.9062 57.2969 29.7109 56.4688 27.3203V20.1953C56.5 20.0234 56.5781 19.9375 56.7031 19.9375H60.2891C60.4453 19.9688 60.5234 20.0547 60.5234 20.1953V25.6562C60.6484 26.5312 61.0859 26.9688 61.8359 26.9688H64.0859C65.0391 26.8906 65.5156 26.4531 65.5156 25.6562V18.8828C65.5156 18.2734 64.3281 17.3984 61.9531 16.2578C58.5625 14.2891 56.8125 12.8984 56.7031 12.0859C56.5469 11.5391 56.4688 11.0625 56.4688 10.6562V4.70312C56.4688 2.64062 57.6562 1.21094 60.0312 0.414062H65.3984ZM70.0391 3.50781C71.4766 4.72656 72.1953 5.60156 72.1953 6.13281C72.0859 6.13281 71.3672 5.41406 70.0391 3.97656V3.50781ZM62.3047 4.9375H62.8906C63 4.9375 63.6797 5.60938 64.9297 6.95312V7.44531H64.6953C64.5859 7.44531 63.7891 6.64844 62.3047 5.05469V4.9375ZM63.7344 4.9375H64.3203C64.4297 4.9375 64.6328 5.14063 64.9297 5.54688V6.13281H64.8125C64.7031 6.13281 64.3438 5.77344 63.7344 5.05469V4.9375ZM61.4609 5.05469C61.5703 5.05469 62.4453 5.92969 64.0859 7.67969C64.0859 7.83594 64.0078 7.91406 63.8516 7.91406H63.7344C63.625 7.91406 62.7891 7.07812 61.2266 5.40625V5.28906C61.2578 5.13281 61.3359 5.05469 61.4609 5.05469ZM70.1562 5.05469H70.2734C70.3828 5.05469 71.1797 5.85156 72.6641 7.44531V7.91406H72.5469C72.4375 7.91406 71.6406 7.125 70.1562 5.54688V5.05469ZM61.1094 6.25H61.2266C61.3359 6.25 62.1328 7.04688 63.6172 8.64062V9.22656H63.5C63.3906 9.22656 62.5938 8.42969 61.1094 6.83594V6.25ZM70.1562 6.48438H70.2734C70.3828 6.48438 71.1797 7.28125 72.6641 8.875V9.22656C72.6641 9.38281 72.5859 9.46094 72.4297 9.46094C70.9141 7.91406 70.1562 7.07812 70.1562 6.95312V6.48438ZM61.1094 7.67969H61.2266C61.3359 7.67969 62.1328 8.47656 63.6172 10.0703V10.6562H63.5C63.3906 10.6562 62.5938 9.85938 61.1094 8.26562V7.67969ZM70.1562 7.91406H70.2734C70.3828 7.91406 71.1797 8.71094 72.6641 10.3047V10.8906H72.5469C72.4375 10.8906 71.6406 10.1016 70.1562 8.52344V7.91406ZM61.1094 9.22656H61.2266C61.3359 9.22656 62.1328 10.0234 63.6172 11.6172C63.5391 11.6172 63.5 11.6562 63.5 11.7344C62.9062 11.5312 62.1094 10.8516 61.1094 9.69531V9.22656ZM70.4141 9.46094L72.6641 11.8516V11.9688C72.6641 12.125 72.5859 12.2031 72.4297 12.2031C72.3203 12.2031 71.4844 11.3672 69.9219 9.69531V9.57812L70.4141 9.46094ZM67.1797 9.57812H67.5547C67.6484 9.57812 68.4766 10.4141 70.0391 12.0859L69.8047 12.2031H69.4531C69.3438 12.2031 68.5078 11.3672 66.9453 9.69531L67.1797 9.57812ZM68.6094 9.57812H68.9844C69.0781 9.57812 69.9062 10.4141 71.4688 12.0859V12.2031H70.8828C70.7734 12.2031 69.9375 11.3672 68.375 9.69531L68.6094 9.57812ZM60.0312 15.7891H60.2891C60.4766 15.7891 60.9922 16.2578 61.8359 17.1953H61.6016C61.3984 17.1953 60.875 16.7266 60.0312 15.7891ZM70.0391 17.1953H70.1562C70.2656 17.1953 70.7422 17.6719 71.5859 18.625V18.7656C71.4766 18.7656 70.9609 18.2422 70.0391 17.1953ZM63.0078 17.5703H63.2656C64.2344 18.1016 64.7891 18.5 64.9297 18.7656V18.8828L64.8125 19.1172C64.375 18.9609 63.7734 18.4453 63.0078 17.5703ZM70.1562 18.2734H70.2734C71.8672 19.6484 72.6641 20.5625 72.6641 21.0156V21.1328H72.5469C72.4375 21.1328 71.6406 20.3438 70.1562 18.7656V18.2734ZM70.1562 19.7031H70.2734C70.3828 19.7031 71.1797 20.5 72.6641 22.0938V22.6797H72.5469C72.4375 22.6797 71.6406 21.8906 70.1562 20.3125V19.7031ZM61.1094 21.0156H61.2266C61.3359 21.0156 62.1328 21.8125 63.6172 23.4062V23.875H63.5C63.3906 23.875 62.5938 23.0781 61.1094 21.4844V21.0156ZM70.1562 21.1328H70.2734C70.3828 21.1328 71.1797 21.9297 72.6641 23.5234V24.1094H72.5469C72.4375 24.1094 71.6406 23.3203 70.1562 21.7422V21.1328ZM61.1094 22.4453H61.2266C61.3359 22.4453 62.1328 23.2422 63.6172 24.8359V25.3047H63.5C63.3906 25.3047 62.5938 24.5078 61.1094 22.9141V22.4453ZM70.1562 22.6797H70.2734C70.3828 22.6797 71.1797 23.4766 72.6641 25.0703V25.5391H72.5469C72.4375 25.5391 71.6406 24.75 70.1562 23.1719V22.6797ZM61.1094 23.875H61.2266C61.3359 23.875 62.1328 24.6719 63.6172 26.2656C63.6172 26.4219 63.5 26.5 63.2656 26.5C63.0469 26.5 62.3281 25.8203 61.1094 24.4609V23.875ZM70.1562 24.1094H70.2734C70.3828 24.1094 71.1797 24.9062 72.6641 26.5V27.0859H72.5469C72.4375 27.0859 71.6406 26.2969 70.1562 24.7188V24.1094ZM61.1094 25.4219H61.2266C61.3516 25.4219 61.6328 25.7031 62.0703 26.2656V26.3828H61.6016C61.4766 26.3828 61.3125 26.2188 61.1094 25.8906V25.4219ZM70.1562 25.6562H70.2734C70.3828 25.6562 71.1797 26.4531 72.6641 28.0469V28.5156H72.5469C72.4375 28.5156 71.6406 27.7266 70.1562 26.1484V25.6562ZM70.2734 26.9688L72.6641 29.4766V29.9453H72.5469C72.4375 29.9453 71.6016 29.1172 70.0391 27.4609V27.2031C70.0703 27.0469 70.1484 26.9688 70.2734 26.9688ZM70.0391 28.1641L72.5469 30.7891C72.4219 31.1016 72.3047 31.2578 72.1953 31.2578L69.6875 28.6328V28.5156C69.6875 28.4062 69.8047 28.2891 70.0391 28.1641ZM69.4531 29.2422C69.5625 29.2422 70.4375 30.1172 72.0781 31.8672C72.0781 31.9766 71.9531 32.0938 71.7031 32.2188L69.2188 29.5938V29.4766C69.2344 29.3203 69.3125 29.2422 69.4531 29.2422ZM68.7266 30.0625H68.8438C68.9531 30.0625 69.7891 30.8984 71.3516 32.5703V32.6875C71.3516 32.8438 71.2734 32.9219 71.1172 32.9219L68.375 30.2969L68.7266 30.0625ZM67.9062 30.6719H68.0234C68.1328 30.6719 69.0078 31.5469 70.6484 33.2969L70.2734 33.5312H70.1562C70.0625 33.5312 69.1953 32.6562 67.5547 30.9062L67.9062 30.6719ZM67.0625 31.1406L69.5703 33.7656V33.8828H69.1016C68.9922 33.8828 68.1562 33.0469 66.5938 31.375V31.2578C66.625 31.2578 66.7812 31.2188 67.0625 31.1406ZM59.5625 31.375H59.9141C60.0234 31.375 60.7031 32.0547 61.9531 33.4141V33.5312C61.6406 33.5312 60.8438 32.8125 59.5625 31.375ZM65.8672 31.375L68.2578 33.8828V34H67.6719C67.5625 34 66.7656 33.2031 65.2812 31.6094V31.4922L65.8672 31.375ZM60.875 31.4922H61.4609C61.5703 31.4922 62.3672 32.2891 63.8516 33.8828V34H63.2656C63.1562 34 62.3594 33.2031 60.875 31.6094V31.4922ZM62.4219 31.4922H62.8906C63 31.4922 63.7969 32.2891 65.2812 33.8828V34H64.8125C64.7031 34 63.9062 33.2031 62.4219 31.6094V31.4922ZM63.8516 31.4922H64.4375C64.5469 31.4922 65.3438 32.2891 66.8281 33.8828V34H66.2422C66.1328 34 65.3359 33.2031 63.8516 31.6094V31.4922ZM75.3594 0.460938H86.8906C87.0625 0.492187 87.1484 0.570313 87.1484 0.695312V4.14062C87.1484 4.29688 87.0625 4.375 86.8906 4.375H79.1797V13.1875H84.875C85.0312 13.2188 85.1094 13.2969 85.1094 13.4219V16.8672C85.1094 17.0234 85.0312 17.1016 84.875 17.1016H79.1797V26.9922H87.5C87.6562 27.0078 87.7344 27.0859 87.7344 27.2266V30.6719C87.7344 30.8281 87.6562 30.9062 87.5 30.9062H75.3594C75.2031 30.9062 75.125 30.8281 75.125 30.6719V0.695312C75.1562 0.539062 75.2344 0.460938 75.3594 0.460938ZM87.7344 1.16406H87.8516C87.9609 1.16406 88.75 1.96094 90.2188 3.55469V3.67188H90.1016C90.0078 3.67188 89.2188 2.88281 87.7344 1.30469V1.16406ZM87.7344 2.125H87.8516C87.9609 2.125 88.75 2.92188 90.2188 4.51562V5.10156H90.1016C90.0078 5.10156 89.2188 4.30469 87.7344 2.71094V2.125ZM87.7344 3.67188H87.8516C87.9609 3.67188 88.75 4.46094 90.2188 6.03906V6.53125H90.1016C90.0078 6.53125 89.2188 5.73438 87.7344 4.14062V3.67188ZM79.8828 4.98438H80.3516C80.4609 4.98438 81.2578 5.77344 82.7422 7.35156V7.46875H82.25C82.1562 7.46875 81.3672 6.67969 79.8828 5.10156V4.98438ZM81.3125 4.98438H81.7812C81.8906 4.98438 82.6875 5.77344 84.1719 7.35156V7.46875H83.6797C83.5859 7.46875 82.7969 6.67969 81.3125 5.10156V4.98438ZM82.7422 4.98438H83.3281C83.4375 4.98438 84.2344 5.77344 85.7188 7.35156V7.46875H85.1094C85.0156 7.46875 84.2266 6.67969 82.7422 5.10156V4.98438ZM84.2891 4.98438H84.7578C84.8672 4.98438 85.6641 5.77344 87.1484 7.35156V7.46875H86.6562C86.5625 7.46875 85.7734 6.67969 84.2891 5.10156V4.98438ZM85.7188 4.98438H86.3047C86.4141 4.98438 87.1641 5.73438 88.5547 7.23438H88.6719V7.46875H88.0859C87.9766 7.46875 87.1875 6.67969 85.7188 5.10156V4.98438ZM87.1484 4.98438H87.7344C87.8438 4.98438 88.6328 5.77344 90.1016 7.35156V7.46875H89.5156C89.4062 7.46875 88.6172 6.67969 87.1484 5.10156V4.98438ZM79.8828 5.80469L82.25 8.3125V8.66406C82.25 8.82031 82.1719 8.89844 82.0156 8.89844L79.6484 6.41406V6.03906C79.6641 5.88281 79.7422 5.80469 79.8828 5.80469ZM79.6484 7.35156H79.7656C79.875 7.35156 80.7031 8.1875 82.25 9.85938V10.3281H82.1328C82.0391 10.3281 81.2109 9.5 79.6484 7.84375V7.35156ZM79.6484 8.78125H79.7656C79.875 8.78125 80.7031 9.61719 82.25 11.2891V11.6406C82.25 11.7969 82.1719 11.875 82.0156 11.875L79.6484 9.27344V8.78125ZM79.8828 10.2109L82.0156 12.4844V12.6016H81.4297C81.3359 12.6016 80.7422 12 79.6484 10.7969V10.4453C79.6641 10.2891 79.7422 10.2109 79.8828 10.2109ZM79.6484 11.7578H79.7656C79.875 11.7578 80.1094 12 80.4688 12.4844V12.6016H80C79.8906 12.6016 79.7734 12.4766 79.6484 12.2266V11.7578ZM85.6016 14.7344H85.7188C85.8125 14.7344 86.6406 15.5625 88.2031 17.2188V17.5938C88.2031 17.75 88.125 17.8281 87.9688 17.8281C87.9688 17.7031 87.1797 16.8281 85.6016 15.2031V14.7344ZM85.8359 16.1641L88.2031 18.6484V19.0234C88.2031 19.1797 88.125 19.2578 87.9688 19.2578L85.6016 16.75V16.3984C85.6172 16.2422 85.6953 16.1641 85.8359 16.1641ZM79.8828 17.7109C79.9922 17.7109 80.7812 18.5 82.25 20.0781V20.4531C82.25 20.6094 82.1719 20.6875 82.0156 20.6875L79.6484 18.1797V17.9453C79.6641 17.7891 79.7422 17.7109 79.8828 17.7109ZM80.8438 17.7109H81.3125C81.4219 17.7109 82.2109 18.5 83.6797 20.0781V20.1953H83.2109C83.1016 20.1953 82.3125 19.4062 80.8438 17.8281V17.7109ZM82.25 17.7109H82.7422C82.8672 17.7109 83.6953 18.5 85.2266 20.0781V20.1953H84.6406C84.5312 20.1953 83.7344 19.4062 82.25 17.8281V17.7109ZM83.7969 17.7109H84.2891C84.3828 17.7109 85.1719 18.5 86.6562 20.0781V20.1953H86.0703C84.6484 18.9141 83.8906 18.125 83.7969 17.8281V17.7109ZM85.2266 17.7109H85.7188C85.8125 17.7109 86.6016 18.5 88.0859 20.0781V20.1953H87.6172C87.5078 20.1953 86.7109 19.4062 85.2266 17.8281V17.7109ZM79.8828 19.0234L82.25 21.5078V22.1172H82.1328C82.0391 22.1172 81.2109 21.2812 79.6484 19.6094V19.2578C79.6641 19.1016 79.7422 19.0234 79.8828 19.0234ZM79.6484 20.5703H79.7656C79.875 20.5703 80.7031 21.3984 82.25 23.0547V23.5234H82.1328C82.0391 23.5234 81.2109 22.6953 79.6484 21.0391V20.5703ZM79.6484 21.9766H79.7656C79.875 21.9766 80.7031 22.8125 82.25 24.4844V24.8359C82.25 24.9922 82.1719 25.0703 82.0156 25.0703L79.6484 22.5859V21.9766ZM79.8828 23.4062L82.25 25.9141V26.2656C82.25 26.4219 82.1719 26.5 82.0156 26.5L79.6484 24.0156V23.6641C79.6641 23.4922 79.7422 23.4062 79.8828 23.4062ZM79.6484 24.9531H79.7656C79.875 24.9531 80.3516 25.4297 81.1953 26.3828V26.5H80.7266C80.6172 26.5 80.2578 26.1484 79.6484 25.4453V24.9531ZM88.2031 27.6953H88.3203C88.4297 27.6953 89.2266 28.4922 90.7109 30.0859V30.5547H90.5938C90.4844 30.5547 89.6875 29.7578 88.2031 28.1641V27.6953ZM88.2031 29.125H88.3203C88.4297 29.125 89.2266 29.9141 90.7109 31.4922V31.9844H90.5938C90.4844 31.9844 89.6875 31.1875 88.2031 29.5938V29.125ZM88.2031 30.5547H88.3203C88.4297 30.5547 89.2266 31.3438 90.7109 32.9219V33.5312H90.5938C90.4844 33.5312 89.6875 32.7344 88.2031 31.1406V30.5547ZM75.8281 31.4922H76.0859C76.1797 31.4922 76.9688 32.2891 78.4531 33.8828V34H78.2188C78.1094 34 77.3125 33.2109 75.8281 31.6328V31.4922ZM77.0234 31.4922H77.4922C77.6016 31.4922 78.3984 32.2891 79.8828 33.8828V34H79.4141C79.3047 34 78.5078 33.2109 77.0234 31.6328V31.4922ZM78.4531 31.4922H79.0391L81.4297 33.8828V34H80.8438C80.7344 34 79.9375 33.2109 78.4531 31.6328V31.4922ZM79.8828 31.4922H80.4688C80.5781 31.4922 81.375 32.2891 82.8594 33.8828V34H82.25C82.1562 34 81.3672 33.2109 79.8828 31.6328V31.4922ZM81.4297 31.4922H81.8984C82.0078 31.4922 82.8047 32.2891 84.2891 33.8828V34H83.7969C83.7031 34 82.9141 33.2109 81.4297 31.6328V31.4922ZM82.8594 31.4922H83.4453C83.5547 31.4922 84.3516 32.2891 85.8359 33.8828V34H85.2266C85.1328 34 84.3438 33.2109 82.8594 31.6328V31.4922ZM84.2891 31.4922H84.875C84.9844 31.4922 85.7812 32.2891 87.2656 33.8828V34H86.6562C86.5625 34 85.7734 33.2109 84.2891 31.6328V31.4922ZM85.8359 31.4922H86.3047C86.4141 31.4922 87.2031 32.2891 88.6719 33.8828V34H88.2031C88.0938 34 87.3047 33.2109 85.8359 31.6328V31.4922ZM87.2656 31.4922H87.8516C87.9609 31.4922 88.75 32.2891 90.2188 33.8828V34H89.6328C89.5234 34 88.7344 33.2109 87.2656 31.6328V31.4922ZM88.7188 0.460938H103.109C103.266 0.492187 103.344 0.570313 103.344 0.695312V4.14062C103.344 4.29688 103.266 4.375 103.109 4.375H98V30.6719C98 30.8281 97.9219 30.9062 97.7656 30.9062H94.2031C94.0312 30.9062 93.9453 30.8281 93.9453 30.6719V4.375H88.7188C88.5625 4.375 88.4844 4.29688 88.4844 4.14062V0.695312C88.5156 0.539062 88.5938 0.460938 88.7188 0.460938ZM103.953 1.16406H104.07C104.164 1.16406 104.953 1.96094 106.438 3.55469V3.67188H106.32C106.211 3.67188 105.422 2.88281 103.953 1.30469V1.16406ZM103.953 2.24219H104.07C104.164 2.24219 104.953 3.03906 106.438 4.63281V5.10156H106.32C106.211 5.10156 105.422 4.30469 103.953 2.71094V2.24219ZM103.953 3.67188H104.07C104.164 3.67188 104.953 4.46094 106.438 6.03906V6.64844H106.32C106.211 6.64844 105.422 5.85156 103.953 4.25781V3.67188ZM90.1484 4.98438H90.7344C90.8438 4.98438 91.6406 5.77344 93.125 7.35156L92.8906 7.46875H92.5391C92.4297 7.46875 91.6328 6.67969 90.1484 5.10156V4.98438ZM91.5781 4.98438H92.1641C92.2734 4.98438 92.6719 5.38281 93.3594 6.17969V6.76562H93.2422C93.1328 6.76562 92.5781 6.21094 91.5781 5.10156V4.98438ZM93.125 4.98438C93.2812 5 93.3594 5.07812 93.3594 5.21875H93.125V4.98438ZM98.9609 4.98438H99.5469C99.6562 4.98438 100.445 5.77344 101.914 7.35156V7.46875H101.328C101.219 7.46875 100.43 6.67969 98.9609 5.10156V4.98438ZM100.367 4.98438H100.977C101.086 4.98438 101.875 5.77344 103.344 7.35156V7.46875H102.758C102.648 7.46875 101.852 6.67969 100.367 5.10156V4.98438ZM101.914 4.98438H102.406C102.5 4.98438 103.289 5.77344 104.773 7.35156V7.46875H104.305C104.195 7.46875 103.398 6.67969 101.914 5.10156V4.98438ZM103.344 4.98438H103.953C104.047 4.98438 104.836 5.77344 106.32 7.35156V7.46875H105.734C105.625 7.46875 104.828 6.67969 103.344 5.10156V4.98438ZM98.5859 5.6875H98.7031C98.8125 5.6875 99.6094 6.48438 101.094 8.07812V8.54688H100.977C100.867 8.54688 100.07 7.75781 98.5859 6.17969V5.6875ZM98.5859 7.11719H98.7031C98.8125 7.11719 99.6094 7.91406 101.094 9.50781V10.0938H100.977C100.867 10.0938 100.07 9.30469 98.5859 7.72656V7.11719ZM98.5859 8.54688H98.7031C98.8125 8.54688 99.6094 9.34375 101.094 10.9375V11.5234H100.977C100.867 11.5234 100.07 10.7266 98.5859 9.13281V8.54688ZM98.5859 10.0938H98.7031C98.8125 10.0938 99.6094 10.8906 101.094 12.4844V12.9531H100.977C100.867 12.9531 100.07 12.1562 98.5859 10.5625V10.0938ZM98.5859 11.5234H98.7031C98.8125 11.5234 99.6094 12.3125 101.094 13.8906V14.5H100.977C100.867 14.5 100.07 13.7031 98.5859 12.1094V11.5234ZM98.5859 12.9531H98.7031C98.8125 12.9531 99.6094 13.7422 101.094 15.3203V15.9297H100.977C100.867 15.9297 100.07 15.1328 98.5859 13.5391V12.9531ZM98.5859 14.5H98.7031C98.8125 14.5 99.6094 15.2891 101.094 16.8672V17.3594H100.977C100.867 17.3594 100.07 16.5625 98.5859 14.9688V14.5ZM98.5859 15.9297H98.7031C98.8125 15.9297 99.6094 16.7188 101.094 18.2969V18.9062H100.977C100.867 18.9062 100.07 18.1094 98.5859 16.5156V15.9297ZM98.5859 17.3594H98.7031C98.7812 17.3594 99.5781 18.1484 101.094 19.7266V20.3125H100.977C100.867 20.3125 100.07 19.5234 98.5859 17.9453V17.3594ZM98.5859 18.9062H98.7031C98.8125 18.9062 99.6094 19.6953 101.094 21.2734V21.7422H100.977C100.867 21.7422 100.07 20.9531 98.5859 19.375V18.9062ZM98.5859 20.3125H98.7031C98.8125 20.3125 99.6094 21.1094 101.094 22.7031V23.2891H100.977C100.867 23.2891 100.07 22.5 98.5859 20.9219V20.3125ZM98.5859 21.8594H98.7031C98.8125 21.8594 99.6094 22.6562 101.094 24.25V24.7188H100.977C100.867 24.7188 100.07 23.9297 98.5859 22.3516V21.8594ZM98.5859 23.2891H98.7031C98.8125 23.2891 99.6094 24.0859 101.094 25.6797V26.1484H100.977C100.867 26.1484 100.07 25.3594 98.5859 23.7812V23.2891ZM98.5859 24.7188H98.7031C98.8125 24.7188 99.6094 25.5156 101.094 27.1094V27.6953H100.977C100.867 27.6953 100.07 26.9062 98.5859 25.3281V24.7188ZM98.5859 26.2656H98.7031C98.8125 26.2656 99.6094 27.0625 101.094 28.6562V29.125H100.977C100.867 29.125 100.07 28.3281 98.5859 26.7344V26.2656ZM98.5859 27.6953H98.7031C98.8125 27.6953 99.6094 28.4922 101.094 30.0859V30.4375C101.094 30.5938 101.016 30.6719 100.859 30.6719L98.5859 28.2812V27.6953ZM98.5859 29.125H98.7031C98.8125 29.125 99.6094 29.9141 101.094 31.4922V32.1016H100.977C100.867 32.1016 100.07 31.3047 98.5859 29.7109V29.125ZM98.5859 30.6719H98.7031C98.8125 30.6719 99.6094 31.4609 101.094 33.0391V33.5312H100.977C100.867 33.5312 100.07 32.7344 98.5859 31.1406V30.6719ZM94.6719 31.4922H95.1406C95.25 31.4922 96.0469 32.2891 97.5312 33.8828V34H97.0391C96.9453 34 96.1562 33.2109 94.6719 31.6328V31.4922ZM96.1016 31.4922H96.6875C96.7969 31.4922 97.5938 32.2891 99.0781 33.8828V34H98.4688C98.375 34 97.5859 33.2109 96.1016 31.6328V31.4922ZM97.5312 31.4922H98.1172C98.2266 31.4922 99.0234 32.2891 100.508 33.8828V34H99.8984C99.7891 34 99 33.2109 97.5312 31.6328V31.4922ZM118.25 0.460938H126.828C128.891 0.460938 130.312 1.6875 131.094 4.14062V10.9375C131.094 12.8906 130.227 14.2734 128.492 15.0859C130.227 16.1484 131.094 17.5391 131.094 19.2578V26.5C131.094 28.625 129.945 30.0938 127.648 30.9062H118.25C118.094 30.9062 118.016 30.8281 118.016 30.6719V0.695312C118.047 0.539062 118.125 0.460938 118.25 0.460938ZM131.445 3.55469H131.562C132.766 4.57031 133.367 5.24219 133.367 5.57031C133.258 5.57031 132.617 4.9375 131.445 3.67188V3.55469ZM122.07 4.375V13.1875H125.75C126.625 13.1875 127.062 12.6719 127.062 11.6406V5.92188C127.062 4.89062 126.547 4.375 125.516 4.375H122.07ZM131.562 4.75H131.703C133.359 6.17188 134.188 7.16406 134.188 7.72656H134.07C133.961 7.72656 133.125 6.89062 131.562 5.21875V4.75ZM122.773 4.98438C122.883 4.98438 123.672 5.77344 125.141 7.35156V7.72656C125.141 7.88281 125.062 7.96094 124.906 7.96094L122.539 5.33594V5.21875C122.555 5.0625 122.633 4.98438 122.773 4.98438ZM123.734 4.98438H124.203C124.297 4.98438 125.047 5.73438 126.453 7.23438C126.453 7.39063 126.375 7.46875 126.219 7.46875H126.102C125.992 7.46875 125.203 6.67969 123.734 5.10156V4.98438ZM125.141 4.98438H125.75C125.859 4.98438 126.094 5.21875 126.453 5.6875V6.29688H126.336C126.227 6.29688 125.828 5.89844 125.141 5.10156V4.98438ZM131.82 6.17969L134.188 8.66406V9.01562C134.188 9.1875 134.109 9.27344 133.953 9.27344L131.562 6.76562V6.41406C131.594 6.25781 131.68 6.17969 131.82 6.17969ZM122.773 6.29688L125.141 8.78125V9.39062H125.023C124.93 9.39062 124.102 8.55469 122.539 6.88281V6.53125C122.555 6.375 122.633 6.29688 122.773 6.29688ZM131.82 7.58594L134.188 10.0938V10.6797H134.07C133.961 10.6797 133.125 9.85156 131.562 8.19531V7.84375C131.594 7.67188 131.68 7.58594 131.82 7.58594ZM122.539 7.84375H122.656C122.766 7.84375 123.594 8.67187 125.141 10.3281V10.7969H125.023C124.93 10.7969 124.102 9.96875 122.539 8.3125V7.84375ZM131.562 9.13281H131.703C131.797 9.13281 132.625 9.96875 134.188 11.6406V12.1094H134.07C133.961 12.1094 133.125 11.2812 131.562 9.625V9.13281ZM122.539 9.27344H122.656C122.766 9.27344 123.594 10.1016 125.141 11.7578V12.1094C125.141 12.2656 125.062 12.3438 124.906 12.3438L122.539 9.85938V9.27344ZM131.82 10.5625L134.188 13.0703V13.4219C134.188 13.5781 134.109 13.6562 133.953 13.6562L131.562 11.1719V10.7969C131.594 10.6406 131.68 10.5625 131.82 10.5625ZM122.773 10.6797L124.555 12.6016L124.32 12.7188H123.969C123.859 12.7188 123.383 12.2422 122.539 11.2891V10.9375C122.555 10.7656 122.633 10.6797 122.773 10.6797ZM131.703 11.9922C131.797 11.9922 132.625 12.8281 134.188 14.5V14.7344C134.188 14.8906 134.109 14.9688 133.953 14.9688C133.844 14.9688 133.008 14.1406 131.445 12.4844V12.2266C131.477 12.0703 131.562 11.9922 131.703 11.9922ZM122.539 12.2266H122.656C122.766 12.2266 122.883 12.3516 123.008 12.6016V12.7188H122.773C122.617 12.7188 122.539 12.6406 122.539 12.4844V12.2266ZM131.094 13.1875H131.328C131.438 13.1875 132.273 14.0234 133.836 15.6953V16.0469H133.602C133.492 16.0469 132.656 15.2109 131.094 13.5391V13.1875ZM130.742 14.0078C130.852 14.0078 131.727 14.8828 133.367 16.6328V16.75C133.367 16.9062 133.281 16.9844 133.109 16.9844H132.992C132.898 16.9844 132.031 16.1172 130.391 14.3828C130.391 14.2578 130.508 14.1328 130.742 14.0078ZM130.039 14.7344L132.641 17.4766C132.641 17.6328 132.562 17.7109 132.406 17.7109H132.289C132.18 17.7109 131.305 16.8359 129.664 15.0859C129.664 14.9766 129.789 14.8594 130.039 14.7344ZM122.07 17.1016V26.9922H125.75C126.625 26.9922 127.062 26.4766 127.062 25.4453V19.0234C127.062 17.7422 126.547 17.1016 125.516 17.1016H122.07ZM123.242 17.7109H123.734C123.828 17.7109 124.617 18.5 126.102 20.0781V20.1953H125.633C125.523 20.1953 124.727 19.4062 123.242 17.8281V17.7109ZM124.672 17.7109H125.281C125.375 17.7109 125.766 18.1094 126.453 18.9062V19.4922H126.336C126.227 19.4922 125.672 18.9375 124.672 17.8281V17.7109ZM131.445 17.7109C132.961 19.1641 133.719 20.1172 133.719 20.5703C132.203 19.2734 131.445 18.3984 131.445 17.9453V17.7109ZM122.773 18.0625L125.141 20.5703V20.9219C125.141 21.0781 125.062 21.1562 124.906 21.1562L122.539 18.6484V18.2969C122.555 18.1406 122.633 18.0625 122.773 18.0625ZM131.82 19.375L134.188 21.8594V22.4688H134.07C133.961 22.4688 133.125 21.6328 131.562 19.9609V19.6094C131.594 19.4531 131.68 19.375 131.82 19.375ZM122.773 19.4922L125.141 21.9766V22.5859H125.023C124.93 22.5859 124.102 21.75 122.539 20.0781V19.7266C122.555 19.5703 122.633 19.4922 122.773 19.4922ZM131.562 20.9219H131.703C131.797 20.9219 132.625 21.75 134.188 23.4062V23.8984H134.07C133.961 23.8984 133.125 23.0625 131.562 21.3906V20.9219ZM122.539 21.0391H122.656C122.766 21.0391 123.594 21.8672 125.141 23.5234V24.0156H125.023C124.93 24.0156 124.102 23.1797 122.539 21.5078V21.0391ZM131.562 22.3516H131.703C131.797 22.3516 132.625 23.1797 134.188 24.8359V25.3281H134.07C133.961 25.3281 133.125 24.4922 131.562 22.8203V22.3516ZM122.773 22.4688L125.141 24.9531V25.3281C125.141 25.4844 125.062 25.5625 124.906 25.5625L122.539 23.0547V22.7031C122.555 22.5469 122.633 22.4688 122.773 22.4688ZM131.82 23.7812L134.188 26.2656V26.875H134.07C133.961 26.875 133.125 26.0391 131.562 24.3672V24.0156C131.594 23.8594 131.68 23.7812 131.82 23.7812ZM122.773 23.8984L125.141 26.3828L124.906 26.5H124.555C124.461 26.5 123.789 25.8281 122.539 24.4844V24.1328C122.555 23.9766 122.633 23.8984 122.773 23.8984ZM131.562 25.3281H131.703C131.797 25.3281 132.625 26.1562 134.188 27.8125V28.2812H134.07C133.961 28.2812 133.125 27.4531 131.562 25.7969V25.3281ZM122.539 25.4453H122.656C122.75 25.4453 123.07 25.7578 123.617 26.3828V26.5H123.125C123.016 26.5 122.82 26.3047 122.539 25.9141V25.4453ZM131.562 26.7344H131.703C131.797 26.7344 132.625 27.5703 134.188 29.2422V29.5938C134.188 29.75 134.109 29.8281 133.953 29.8281L131.562 27.3438V26.7344ZM131.328 28.0469H131.562C131.672 28.0469 132.508 28.8828 134.07 30.5547V30.7891C134.07 30.9453 133.992 31.0234 133.836 31.0234C133.727 31.0234 132.891 30.1953 131.328 28.5391V28.0469ZM130.977 29.125H131.094C131.203 29.125 132.039 29.9609 133.602 31.6328V31.9844H133.367C133.258 31.9844 132.383 31.1094 130.742 29.3594C130.773 29.2031 130.852 29.125 130.977 29.125ZM130.391 29.8281C130.5 29.8281 131.367 30.7031 132.992 32.4531V32.5703C132.992 32.7266 132.914 32.8047 132.758 32.8047H132.641C132.531 32.8047 131.664 31.9375 130.039 30.2031C130.039 30.0781 130.156 29.9531 130.391 29.8281ZM129.781 30.5547L132.289 33.1562C132.289 33.3281 132.211 33.4141 132.055 33.4141H131.82C131.711 33.4141 130.875 32.5781 129.312 30.9062V30.6719C129.359 30.6719 129.516 30.6328 129.781 30.5547ZM128.352 31.1406H128.727C128.82 31.1406 129.648 31.9766 131.211 33.6484V33.8828H130.859C130.75 33.8828 129.914 33.0469 128.352 31.375V31.1406ZM127.648 31.375L130.039 33.8828V34H129.43C129.32 34 128.531 33.2109 127.062 31.6328V31.4922L127.648 31.375ZM118.719 31.4922H118.859C118.953 31.4922 119.742 32.2891 121.227 33.8828V34H121.109C121 34 120.203 33.2109 118.719 31.6328V31.4922ZM119.797 31.4922H120.266C120.375 31.4922 121.172 32.2891 122.656 33.8828V34H122.188C122.078 34 121.281 33.2109 119.797 31.6328V31.4922ZM121.227 31.4922H121.812C121.922 31.4922 122.719 32.2891 124.203 33.8828V34H123.617C123.508 34 122.711 33.2109 121.227 31.6328V31.4922ZM122.656 31.4922H123.242C123.352 31.4922 124.148 32.2891 125.633 33.8828V34H125.023C124.93 34 124.141 33.2109 122.656 31.6328V31.4922ZM124.203 31.4922H124.672C124.781 31.4922 125.578 32.2891 127.062 33.8828V34H126.57C126.477 34 125.688 33.2109 124.203 31.6328V31.4922ZM125.633 31.4922H126.219C126.328 31.4922 127.125 32.2891 128.609 33.8828V34H128C127.906 34 127.117 33.2109 125.633 31.6328V31.4922ZM141.594 0.460938H144.922C147.141 0.460938 148.641 1.48438 149.422 3.53125C149.578 3.84375 149.656 4.28125 149.656 4.84375V26.5234C149.656 28.7891 148.352 30.2578 145.742 30.9297H141.008C138.93 30.9297 137.469 29.7812 136.625 27.4844V4.375C136.625 2.65625 137.773 1.39063 140.07 0.578125C140.586 0.5 141.094 0.460938 141.594 0.460938ZM150.008 3.67188H150.125C151.547 4.875 152.258 5.74219 152.258 6.27344C150.758 4.97656 150.008 4.10938 150.008 3.67188ZM140.656 5.66406V25.7031C140.812 26.5781 141.68 27.0156 143.258 27.0156C144.836 27.0156 145.625 26.5 145.625 25.4688V6.03906C145.625 5.28906 145.352 4.77344 144.805 4.49219H141.828C141.047 4.61719 140.656 5.00781 140.656 5.66406ZM142.086 4.96094H142.555C142.664 4.96094 143.492 5.78906 145.039 7.44531L144.805 7.5625H144.57C142.914 6.04687 142.086 5.25781 142.086 5.19531V4.96094ZM143.492 4.96094H143.984C144.656 5.44531 145.008 5.76562 145.039 5.92188V6.50781H144.922C144.812 6.50781 144.336 6.03125 143.492 5.07812V4.96094ZM150.383 4.96094L152.75 7.44531V8.05469H152.633C152.523 8.05469 151.688 7.21875 150.125 5.54688V5.19531C150.156 5.03906 150.242 4.96094 150.383 4.96094ZM141.242 5.3125H141.477C141.586 5.3125 142.422 6.14844 143.984 7.82031V8.05469C143.984 8.21094 143.898 8.28906 143.727 8.28906C143.633 8.28906 142.766 7.41406 141.125 5.66406C141.203 5.52344 141.242 5.40625 141.242 5.3125ZM141.359 6.50781L143.727 8.99219V9.57812H143.609C143.516 9.57812 142.688 8.75 141.125 7.09375V6.74219C141.156 6.58594 141.234 6.50781 141.359 6.50781ZM150.125 6.50781H150.266C150.359 6.50781 151.188 7.33594 152.75 8.99219V9.46094H152.633C152.523 9.46094 151.688 8.63281 150.125 6.97656V6.50781ZM150.383 7.9375L152.75 10.4219V10.7734C152.75 10.9297 152.672 11.0078 152.516 11.0078L150.125 8.52344V8.17188C150.156 8.01562 150.242 7.9375 150.383 7.9375ZM141.125 8.05469H141.242C141.352 8.05469 142.18 8.88281 143.727 10.5391V11.0078H143.609C143.516 11.0078 142.688 10.1797 141.125 8.52344V8.05469ZM150.383 9.34375L152.75 11.8281V12.4375H152.633C152.523 12.4375 151.688 11.6094 150.125 9.95312V9.57812C150.156 9.42187 150.242 9.34375 150.383 9.34375ZM141.359 9.46094L143.727 11.9453V12.3203C143.727 12.4766 143.648 12.5547 143.492 12.5547L141.125 10.0703V9.69531C141.156 9.53906 141.234 9.46094 141.359 9.46094ZM141.359 10.8906L143.727 13.375V13.9609H143.609C143.516 13.9609 142.688 13.1328 141.125 11.4766V11.125C141.156 10.9688 141.234 10.8906 141.359 10.8906ZM150.125 10.8906H150.266C150.359 10.8906 151.188 11.7188 152.75 13.375V13.8438H152.633C152.523 13.8438 151.688 13.0156 150.125 11.3594V10.8906ZM150.383 12.3203L152.75 14.8047V15.1562C152.75 15.3125 152.672 15.3906 152.516 15.3906L150.125 12.9062V12.5547C150.156 12.3984 150.242 12.3203 150.383 12.3203ZM141.125 12.4375H141.242C141.352 12.4375 142.18 13.2656 143.727 14.9219V15.3906H143.609C143.516 15.3906 142.688 14.5625 141.125 12.9062V12.4375ZM150.383 13.7266L152.75 16.2344V16.8203H152.633C152.523 16.8203 151.688 15.9922 150.125 14.3359V13.9609C150.156 13.8047 150.242 13.7266 150.383 13.7266ZM141.359 13.8438L143.727 16.3516V16.9375H143.609C143.516 16.9375 142.688 16.1094 141.125 14.4531V14.1016C141.156 13.9297 141.234 13.8438 141.359 13.8438ZM150.125 15.2734H150.266C150.359 15.2734 151.188 16.1016 152.75 17.7578V18.2266H152.633C152.523 18.2266 151.688 17.3984 150.125 15.7422V15.2734ZM141.125 15.3906H141.242C141.352 15.3906 142.18 16.2188 143.727 17.875V18.3672H143.609C143.516 18.3672 142.688 17.5312 141.125 15.8594V15.3906ZM150.383 16.7031L152.75 19.1875V19.7734H152.633C152.523 19.7734 151.688 18.9453 150.125 17.2891V16.9375C150.156 16.7812 150.242 16.7031 150.383 16.7031ZM141.125 16.8203H141.242C141.352 16.8203 142.18 17.6484 143.727 19.3047V19.7734H143.609C143.516 19.7734 142.688 18.9453 141.125 17.2891V16.8203ZM150.383 18.1094L152.75 20.6172V21.2031H152.633C152.523 21.2031 151.688 20.375 150.125 18.7188V18.3672C150.156 18.1953 150.242 18.1094 150.383 18.1094ZM141.359 18.2266L143.727 20.7344V21.3203H143.609C143.516 21.3203 142.688 20.4922 141.125 18.8359V18.4844C141.156 18.3125 141.234 18.2266 141.359 18.2266ZM150.125 19.6562H150.266C150.359 19.6562 151.188 20.4844 152.75 22.1406V22.6328H152.633C152.523 22.6328 151.688 21.7969 150.125 20.125V19.6562ZM141.125 19.7734H141.242C141.352 19.7734 142.18 20.6016 143.727 22.2578V22.75H143.609C143.516 22.75 142.688 21.9141 141.125 20.2422V19.7734ZM150.383 21.0859L152.75 23.5703V24.1562H152.633C152.523 24.1562 151.688 23.3281 150.125 21.6719V21.3203C150.156 21.1641 150.242 21.0859 150.383 21.0859ZM141.125 21.2031H141.242C141.352 21.2031 142.18 22.0312 143.727 23.6875V24.1562H143.609C141.953 22.625 141.125 21.7969 141.125 21.6719V21.2031ZM141.359 22.6328L143.727 25.1172V25.7031H143.609C143.516 25.7031 142.688 24.875 141.125 23.2188V22.8672C141.156 22.7109 141.234 22.6328 141.359 22.6328ZM150.125 22.6328H150.266C150.359 22.6328 151.188 23.4609 152.75 25.1172V25.5859H152.633C152.523 25.5859 151.688 24.7578 150.125 23.1016V22.6328ZM150.125 24.0391H150.266C150.359 24.0391 151.188 24.8672 152.75 26.5234V27.0156H152.633C152.523 27.0156 151.688 26.1797 150.125 24.5078V24.0391ZM141.125 24.1562H141.242C141.352 24.1562 142.062 24.8672 143.375 26.2891V26.4062H142.906C142.812 26.4062 142.219 25.8203 141.125 24.6484V24.1562ZM150.383 25.4688L152.75 27.9531V28.5391H152.633C152.523 28.5391 151.688 27.7109 150.125 26.0547V25.7031C150.156 25.5469 150.242 25.4688 150.383 25.4688ZM141.359 25.5859L141.969 26.2891V26.4062H141.711C141.43 26.2656 141.234 26.0312 141.125 25.7031L141.359 25.5859ZM150.125 27.0156H150.266C150.359 27.0156 151.188 27.8438 152.75 29.5V29.9688H152.633C152.523 29.9688 151.688 29.1406 150.125 27.4844V27.0156ZM150.008 28.1875C150.117 28.1875 150.953 29.0156 152.516 30.6719V31.1641H152.258C152.211 31.1641 151.383 30.2891 149.773 28.5391V28.4219C149.805 28.2656 149.883 28.1875 150.008 28.1875ZM149.539 29.1484C149.648 29.1484 150.516 30.0156 152.141 31.75C152.062 31.9062 152.023 32.0234 152.023 32.1016H151.789C151.68 32.1016 150.812 31.2344 149.188 29.5C149.188 29.3906 149.305 29.2734 149.539 29.1484ZM148.836 29.9688C148.945 29.9688 149.812 30.8359 151.438 32.5703V32.6875C151.438 32.8438 151.359 32.9219 151.203 32.9219C151.094 32.9219 150.227 32.0547 148.602 30.3203V30.2031C148.617 30.0469 148.695 29.9688 148.836 29.9688ZM147.875 30.6719H148.109C148.219 30.6719 149.055 31.5078 150.617 33.1797V33.4141L150.125 33.5312L147.641 30.9297C147.672 30.7578 147.75 30.6719 147.875 30.6719ZM146.703 31.1641H147.172C147.281 31.1641 148.109 31.9922 149.656 33.6484C149.656 33.8047 149.578 33.8828 149.422 33.8828H149.188C149.078 33.8828 148.25 33.0547 146.703 31.3984V31.1641ZM139.695 31.2812H139.953C140.047 31.2812 140.758 31.9922 142.086 33.4141H141.828C141.469 33.2422 140.758 32.5703 139.695 31.3984V31.2812ZM141.008 31.3984H141.477C141.586 31.3984 142.422 32.2266 143.984 33.8828V34H143.492C143.398 34 142.57 33.1719 141.008 31.5156V31.3984ZM142.672 31.3984H143.023C143.133 31.3984 143.961 32.2266 145.508 33.8828L145.273 34H144.922C144.812 34 143.984 33.1719 142.438 31.5156L142.672 31.3984ZM144.102 31.3984H144.453C144.547 31.3984 145.375 32.2266 146.938 33.8828V34H146.352C146.242 34 145.406 33.1719 143.844 31.5156L144.102 31.3984ZM145.391 31.3984H145.859C145.969 31.3984 146.805 32.2266 148.367 33.8828V34H147.875C147.781 34 146.953 33.1719 145.391 31.5156V31.3984ZM155.281 0.414062H158.867C159.023 0.445312 159.102 0.523438 159.102 0.648438V25.7734C159.102 26.4922 159.578 26.8906 160.531 26.9688H162.781C163.656 26.9688 164.094 26.3359 164.094 25.0703V0.648438C164.125 0.492187 164.203 0.414062 164.328 0.414062H167.914C168.07 0.445312 168.148 0.523438 168.148 0.648438V26.2656C168.148 28.625 166.961 30.1719 164.586 30.9062H159.219C157.031 30.9062 155.641 29.6328 155.047 27.0859V0.648438C155.078 0.492187 155.156 0.414062 155.281 0.414062ZM159.688 1.11719H159.805C159.961 1.14844 160.039 1.23438 160.039 1.375V1.49219C159.93 1.49219 159.812 1.36719 159.688 1.11719ZM168.734 1.11719C168.844 1.11719 169.641 1.91406 171.125 3.50781V3.625C171.016 3.625 170.219 2.83594 168.734 1.25781V1.11719ZM159.805 1.84375L162.195 4.35156V4.9375H162.078C161.969 4.9375 161.133 4.10156 159.57 2.42969V2.07812C159.602 1.92187 159.68 1.84375 159.805 1.84375ZM168.852 2.07812L171.242 4.58594V4.9375C171.242 5.09375 171.164 5.17188 171.008 5.17188L168.617 2.6875V2.3125C168.648 2.15625 168.727 2.07812 168.852 2.07812ZM159.57 3.39062H159.688C159.797 3.39062 160.633 4.22656 162.195 5.89844V6.36719H162.078C161.969 6.36719 161.133 5.53125 159.57 3.85938V3.39062ZM168.617 3.625H168.734C168.844 3.625 169.68 4.46094 171.242 6.13281V6.60156H171.125C171.016 6.60156 170.18 5.77344 168.617 4.11719V3.625ZM159.57 4.82031H159.688C159.797 4.82031 160.633 5.65625 162.195 7.32812V7.67969C162.195 7.83594 162.117 7.91406 161.961 7.91406L159.57 5.40625V4.82031ZM168.852 5.05469L171.242 7.5625V7.91406C171.242 8.07031 171.164 8.14844 171.008 8.14844C171.008 8.05469 170.336 7.34375 168.992 6.01562L168.617 5.66406V5.28906C168.648 5.13281 168.727 5.05469 168.852 5.05469ZM159.805 6.25L162.195 8.75781V9.34375H162.078C161.969 9.34375 161.133 8.50781 159.57 6.83594V6.48438C159.602 6.32812 159.68 6.25 159.805 6.25ZM168.852 6.48438L171.242 8.99219V9.57812H171.125C171.016 9.57812 170.18 8.75 168.617 7.09375V6.71875C168.648 6.5625 168.727 6.48438 168.852 6.48438ZM159.57 7.79688H159.688C159.797 7.79688 160.633 8.63281 162.195 10.3047V10.7734H162.078C161.969 10.7734 161.133 9.9375 159.57 8.26562V7.79688ZM168.617 8.03125H168.734C168.844 8.03125 169.68 8.86719 171.242 10.5391V11.0078H171.125C171.016 11.0078 170.18 10.1797 168.617 8.52344V8.03125ZM159.57 9.22656H159.688C159.797 9.22656 160.633 10.0625 162.195 11.7344V12.0859C162.195 12.2422 162.117 12.3203 161.961 12.3203L159.57 9.8125V9.22656ZM168.617 9.46094H168.734C168.844 9.46094 169.68 10.2969 171.242 11.9688V12.3203C171.242 12.4766 171.164 12.5547 171.008 12.5547L168.617 10.0703V9.46094ZM159.805 10.6562L162.195 13.1641V13.75H162.078C161.969 13.75 161.133 12.9141 159.57 11.2422V10.8906C159.602 10.7344 159.68 10.6562 159.805 10.6562ZM168.852 10.8906L171.242 13.3984V13.9844H171.125C171.016 13.9844 170.18 13.1562 168.617 11.5V11.125C168.648 10.9688 168.727 10.8906 168.852 10.8906ZM159.57 12.2031H159.688C159.797 12.2031 160.633 13.0391 162.195 14.7109V15.1797H162.078C161.969 15.1797 161.133 14.3438 159.57 12.6719V12.2031ZM168.617 12.4375H168.734C168.844 12.4375 169.68 13.2734 171.242 14.9453V15.4141H171.125C171.016 15.4141 170.18 14.5859 168.617 12.9297V12.4375ZM159.57 13.6328H159.688C159.797 13.6328 160.633 14.4688 162.195 16.1406V16.4922C162.195 16.6484 162.117 16.7266 161.961 16.7266L159.57 14.2188V13.6328ZM168.617 13.8672H168.734C168.844 13.8672 169.68 14.7031 171.242 16.375V16.7266C171.242 16.8828 171.164 16.9609 171.008 16.9609L168.617 14.4766V13.8672ZM159.57 15.1797H159.688C160.328 15.6797 161.164 16.5156 162.195 17.6875V18.1562H162.078C161.969 18.1562 161.133 17.3203 159.57 15.6484V15.1797ZM168.852 15.2969L171.242 17.8047V18.3906H171.125C171.016 18.3906 170.18 17.5625 168.617 15.9062V15.5312C168.648 15.375 168.727 15.2969 168.852 15.2969ZM159.57 16.6094H159.688C159.797 16.6094 160.633 17.4453 162.195 19.1172V19.5859H162.078C161.969 19.5859 161.133 18.75 159.57 17.0781V16.6094ZM168.617 16.8438H168.734C168.844 16.8438 169.68 17.6797 171.242 19.3516V19.8203H171.125C171.016 19.8203 170.18 18.9922 168.617 17.3359V16.8438ZM159.805 18.0391L162.195 20.5469V20.8984C162.195 21.0547 162.117 21.1328 161.961 21.1328L159.57 18.625V18.2734C159.602 18.1172 159.68 18.0391 159.805 18.0391ZM168.617 18.2734H168.734C168.844 18.2734 169.68 19.1094 171.242 20.7812V21.1328C171.242 21.2891 171.164 21.3672 171.008 21.3672L168.617 18.8828V18.2734ZM159.57 19.5859H159.688C159.797 19.5859 160.633 20.4219 162.195 22.0938V22.5625H162.078C161.969 22.5625 161.133 21.7266 159.57 20.0547V19.5859ZM168.852 19.7031L171.242 22.2109V22.7969H171.125C171.016 22.7969 170.18 21.9688 168.617 20.3125V19.9375C168.648 19.7812 168.727 19.7031 168.852 19.7031ZM159.57 21.0156H159.688C159.797 21.0156 160.633 21.8516 162.195 23.5234V23.9922H162.078C161.969 23.9922 161.133 23.1562 159.57 21.4844V21.0156ZM168.617 21.25H168.734C168.844 21.25 169.68 22.0859 171.242 23.7578V24.2266H171.125C171.016 24.2266 170.18 23.3984 168.617 21.7422V21.25ZM159.805 22.4453L162.195 24.9531V25.3047C162.195 25.4609 162.117 25.5391 161.961 25.5391L159.57 23.0312V22.6797C159.602 22.5234 159.68 22.4453 159.805 22.4453ZM168.617 22.6797H168.734C168.844 22.6797 169.68 23.5156 171.242 25.1875V25.5391C171.242 25.6953 171.164 25.7734 171.008 25.7734L168.617 23.2891V22.6797ZM159.57 23.9922H159.688C159.797 23.9922 160.555 24.75 161.961 26.2656V26.3828H161.469C161.375 26.3828 160.742 25.7422 159.57 24.4609V23.9922ZM168.617 24.2266H168.734C168.875 24.2266 169.711 25.0625 171.242 26.7344V27.2031H171.125C171.016 27.2031 170.18 26.375 168.617 24.7188V24.2266ZM159.57 25.4219H159.688C159.797 25.4219 160.117 25.7422 160.648 26.3828C160.57 26.3828 160.531 26.4219 160.531 26.5C159.891 26.4219 159.57 26.1016 159.57 25.5391V25.4219ZM168.617 25.6562H168.734C168.844 25.6562 169.68 26.4922 171.242 28.1641V28.6328H171.125C171.016 28.6328 170.18 27.8047 168.617 26.1484V25.6562ZM168.617 27.0859H168.734C168.844 27.0859 169.68 27.9219 171.242 29.5938V29.9453C171.242 30.1016 171.164 30.1797 171.008 30.1797L168.5 27.5781C168.578 27.4375 168.617 27.2734 168.617 27.0859ZM168.266 28.2812H168.5C169.156 28.8281 169.992 29.7031 171.008 30.9062V31.0234C171.008 31.1797 170.93 31.2578 170.773 31.2578C170.664 31.2578 169.828 30.4219 168.266 28.75V28.2812ZM167.914 29.2422C168.023 29.2422 168.898 30.1172 170.539 31.8672V31.9844C170.539 32.1406 170.453 32.2188 170.281 32.2188C170.188 32.2188 169.32 31.3438 167.68 29.5938V29.4766C167.695 29.3203 167.773 29.2422 167.914 29.2422ZM167.188 30.0625H167.305C167.414 30.0625 168.289 30.9375 169.93 32.6875C169.93 32.7969 169.812 32.9141 169.578 33.0391C169.469 33.0391 168.594 32.1719 166.953 30.4375V30.2969C166.984 30.1406 167.062 30.0625 167.188 30.0625ZM166.133 30.7891H166.484C166.594 30.7891 167.43 31.625 168.992 33.2969V33.5312H168.617C168.523 33.5312 167.695 32.6953 166.133 31.0234V30.7891ZM165.523 31.1406L168.031 33.7656V33.8828L167.422 34L164.938 31.375C165.188 31.2188 165.383 31.1406 165.523 31.1406ZM158.141 31.375H158.258C158.367 31.375 158.961 31.9688 160.039 33.1562H159.922C159.734 33.1562 159.141 32.6016 158.141 31.4922V31.375ZM159.336 31.4922H159.922C160.031 31.4922 160.828 32.2891 162.312 33.8828V34H161.727C161.617 34 160.82 33.2031 159.336 31.6094V31.4922ZM160.766 31.4922H161.352C161.461 31.4922 162.258 32.2891 163.742 33.8828V34H163.156C163.047 34 162.25 33.2031 160.766 31.6094V31.4922ZM162.312 31.4922H162.781C162.891 31.4922 163.688 32.2891 165.172 33.8828V34H164.703C164.594 34 163.797 33.2031 162.312 31.6094V31.4922ZM163.742 31.4922H164.328C164.438 31.4922 165.234 32.2891 166.719 33.8828V34H166.133C166.023 34 165.227 33.2031 163.742 31.6094V31.4922ZM178.953 1.16406L181.32 3.67188V4.25781H181.203C181.109 4.25781 180.281 3.42969 178.719 1.77344V1.39844C178.75 1.24219 178.828 1.16406 178.953 1.16406ZM178.719 2.71094H178.836C178.945 2.71094 179.773 3.53906 181.32 5.19531V5.66406H181.203C181.109 5.66406 180.281 4.83594 178.719 3.17969V2.71094ZM178.953 4.14062L181.32 6.625V6.97656C181.32 7.13281 181.242 7.21094 181.086 7.21094L178.719 4.72656V4.375C178.75 4.21875 178.828 4.14062 178.953 4.14062ZM178.953 5.54688C178.969 5.67187 179.758 6.50781 181.32 8.05469V8.64062H181.203C181.109 8.64062 180.281 7.8125 178.719 6.15625V5.80469C178.75 5.63281 178.828 5.54688 178.953 5.54688ZM178.719 7.09375H178.836C178.945 7.09375 179.773 7.92187 181.32 9.57812V10.0703H181.203C181.109 10.0703 180.281 9.23437 178.719 7.5625V7.09375ZM178.953 8.52344L181.32 11.0078V11.3594C181.32 11.5156 181.242 11.5938 181.086 11.5938L178.719 9.10938V8.75781C178.75 8.60156 178.828 8.52344 178.953 8.52344ZM178.719 10.0703H178.836C178.945 10.0703 179.773 10.8984 181.32 12.5547V13.0234H181.203C181.109 13.0234 180.281 12.1953 178.719 10.5391V10.0703ZM178.719 11.4766H178.836C178.945 11.4766 179.773 12.3047 181.32 13.9609V14.4531H181.203C181.109 14.4531 180.281 13.6172 178.719 11.9453V11.4766ZM178.953 12.9062L181.32 15.3906V15.9766H181.203C181.109 15.9766 180.281 15.1484 178.719 13.4922V13.1406C178.75 12.9844 178.828 12.9062 178.953 12.9062ZM178.719 14.4531H178.836C178.945 14.4531 179.773 15.2812 181.32 16.9375V17.4062H181.203C181.109 17.4062 180.281 16.5781 178.719 14.9219V14.4531ZM178.719 15.8594H178.836C178.945 15.8594 179.773 16.6953 181.32 18.3672V18.7188C181.32 18.875 181.242 18.9531 181.086 18.9531L178.719 16.4688V15.8594ZM178.953 17.2891L181.32 19.7734V20.3594H181.203C181.109 20.3594 180.281 19.5312 178.719 17.875V17.5234C178.75 17.3672 178.828 17.2891 178.953 17.2891ZM178.719 18.8359H178.836C178.945 18.8359 179.773 19.6641 181.32 21.3203V21.7891H181.203C181.109 21.7891 180.281 20.9609 178.719 19.3047V18.8359ZM178.719 20.2422H178.836C178.945 20.2422 179.773 21.0781 181.32 22.75V23.1016C181.32 23.2578 181.242 23.3359 181.086 23.3359L178.719 20.8516V20.2422ZM178.953 21.6719L181.32 24.1562V24.7656H181.203C181.109 24.7656 180.281 23.9297 178.719 22.2578V21.9062C178.75 21.75 178.828 21.6719 178.953 21.6719ZM178.719 23.2188H178.836C178.945 23.2188 179.773 24.0469 181.32 25.7031V26.1719H181.203C181.109 26.1719 180.281 25.3438 178.719 23.6875V23.2188ZM178.719 24.6484H178.836C178.961 24.6641 179.516 25.2109 180.5 26.2891V26.4062H179.914C179.805 26.4062 179.406 26.0156 178.719 25.2344V24.6484ZM178.953 26.0547L179.07 26.2891V26.4062H178.953C178.797 26.4062 178.719 26.3281 178.719 26.1719L178.953 26.0547ZM186.898 28.4219H187.016C187.125 28.4219 187.953 29.2578 189.5 30.9297V31.2812C189.5 31.4375 189.422 31.5156 189.266 31.5156L186.898 29.0312V28.4219ZM187.133 29.8516L189.5 32.3359V32.6875C189.5 32.8438 189.422 32.9219 189.266 32.9219L186.898 30.4375V30.0859C186.93 29.9297 187.008 29.8516 187.133 29.8516ZM175.039 31.3984H175.414C175.508 31.3984 176.336 32.2266 177.898 33.8828L177.664 34H177.289C177.195 34 176.367 33.1719 174.805 31.5156L175.039 31.3984ZM176.469 31.3984H176.82C176.93 31.3984 177.758 32.2266 179.305 33.8828V34H178.719C178.609 34 177.781 33.1719 176.234 31.5156L176.469 31.3984ZM177.781 31.3984H178.25C178.359 31.3984 179.188 32.2266 180.734 33.8828V34H180.266C180.156 34 179.328 33.1719 177.781 31.5156V31.3984ZM179.188 31.3984H179.422C179.875 31.3984 180.828 32.2266 182.281 33.8828L182.047 34H181.695C181.586 34 180.75 33.1719 179.188 31.5156V31.3984ZM180.852 31.3984H181.203C181.312 31.3984 182.148 32.2266 183.711 33.8828V34H183.102C182.992 34 182.164 33.1719 180.617 31.5156L180.852 31.3984ZM182.164 31.3984H182.633C182.742 31.3984 183.57 32.2266 185.117 33.8828V34H184.648C184.539 34 183.711 33.1719 182.164 31.5156V31.3984ZM183.828 31.3984H184.18C184.289 31.3984 185.117 32.2266 186.664 33.8828L186.43 34H186.078C185.969 34 185.133 33.1719 183.57 31.5156L183.828 31.3984ZM185.234 31.3984H185.586C185.695 31.3984 186.531 32.2266 188.094 33.8828V34H187.484C187.391 34 186.562 33.1719 185 31.5156L185.234 31.3984ZM186.547 31.3984H187.016C187.125 31.3984 187.953 32.2266 189.5 33.8828L189.266 34H189.031C188.922 34 188.094 33.1719 186.547 31.5156V31.3984ZM186.359 27.0156H186.43V30.6719C186.43 30.8438 186.352 30.9297 186.195 30.9297H174.453C174.297 30.9297 174.219 30.8438 174.219 30.6719V0.695312C174.25 0.539062 174.328 0.460938 174.453 0.460938H178.016C178.172 0.492187 178.25 0.570313 178.25 0.695312V26.875H186.359V27.0156ZM189.688 0.460938H201.219C201.391 0.492187 201.477 0.570313 201.477 0.695312V4.14062C201.477 4.29688 201.391 4.375 201.219 4.375H193.508V13.1875H199.203C199.359 13.2188 199.438 13.2969 199.438 13.4219V16.8672C199.438 17.0234 199.359 17.1016 199.203 17.1016H193.508V26.9922H201.828C201.984 27.0078 202.062 27.0859 202.062 27.2266V30.6719C202.062 30.8281 201.984 30.9062 201.828 30.9062H189.688C189.531 30.9062 189.453 30.8281 189.453 30.6719V0.695312C189.484 0.539062 189.562 0.460938 189.688 0.460938ZM202.062 1.16406H202.18C202.289 1.16406 203.078 1.96094 204.547 3.55469V3.67188H204.43C204.336 3.67188 203.547 2.88281 202.062 1.30469V1.16406ZM202.062 2.125H202.18C202.289 2.125 203.078 2.92188 204.547 4.51562V5.10156H204.43C204.336 5.10156 203.547 4.30469 202.062 2.71094V2.125ZM202.062 3.67188H202.18C202.289 3.67188 203.078 4.46094 204.547 6.03906V6.53125H204.43C204.336 6.53125 203.547 5.73438 202.062 4.14062V3.67188ZM194.211 4.98438H194.68C194.789 4.98438 195.586 5.77344 197.07 7.35156V7.46875H196.578C196.484 7.46875 195.695 6.67969 194.211 5.10156V4.98438ZM195.641 4.98438H196.109C196.219 4.98438 197.016 5.77344 198.5 7.35156V7.46875H198.008C197.914 7.46875 197.125 6.67969 195.641 5.10156V4.98438ZM197.07 4.98438H197.656C197.766 4.98438 198.562 5.77344 200.047 7.35156V7.46875H199.438C199.344 7.46875 198.555 6.67969 197.07 5.10156V4.98438ZM198.617 4.98438H199.086C199.195 4.98438 199.992 5.77344 201.477 7.35156V7.46875H200.984C200.891 7.46875 200.102 6.67969 198.617 5.10156V4.98438ZM200.047 4.98438H200.633C200.742 4.98438 201.492 5.73438 202.883 7.23438H203V7.46875H202.414C202.305 7.46875 201.516 6.67969 200.047 5.10156V4.98438ZM201.477 4.98438H202.062C202.172 4.98438 202.961 5.77344 204.43 7.35156V7.46875H203.844C203.734 7.46875 202.945 6.67969 201.477 5.10156V4.98438ZM194.211 5.80469L196.578 8.3125V8.66406C196.578 8.82031 196.5 8.89844 196.344 8.89844L193.977 6.41406V6.03906C193.992 5.88281 194.07 5.80469 194.211 5.80469ZM193.977 7.35156H194.094C194.203 7.35156 195.031 8.1875 196.578 9.85938V10.3281H196.461C196.367 10.3281 195.539 9.5 193.977 7.84375V7.35156ZM193.977 8.78125H194.094C194.203 8.78125 195.031 9.61719 196.578 11.2891V11.6406C196.578 11.7969 196.5 11.875 196.344 11.875L193.977 9.27344V8.78125ZM194.211 10.2109L196.344 12.4844V12.6016H195.758C195.664 12.6016 195.07 12 193.977 10.7969V10.4453C193.992 10.2891 194.07 10.2109 194.211 10.2109ZM193.977 11.7578H194.094C194.203 11.7578 194.438 12 194.797 12.4844V12.6016H194.328C194.219 12.6016 194.102 12.4766 193.977 12.2266V11.7578ZM199.93 14.7344H200.047C200.141 14.7344 200.969 15.5625 202.531 17.2188V17.5938C202.531 17.75 202.453 17.8281 202.297 17.8281C202.297 17.7031 201.508 16.8281 199.93 15.2031V14.7344ZM200.164 16.1641L202.531 18.6484V19.0234C202.531 19.1797 202.453 19.2578 202.297 19.2578L199.93 16.75V16.3984C199.945 16.2422 200.023 16.1641 200.164 16.1641ZM194.211 17.7109C194.32 17.7109 195.109 18.5 196.578 20.0781V20.4531C196.578 20.6094 196.5 20.6875 196.344 20.6875L193.977 18.1797V17.9453C193.992 17.7891 194.07 17.7109 194.211 17.7109ZM195.172 17.7109H195.641C195.75 17.7109 196.539 18.5 198.008 20.0781V20.1953H197.539C197.43 20.1953 196.641 19.4062 195.172 17.8281V17.7109ZM196.578 17.7109H197.07C197.195 17.7109 198.023 18.5 199.555 20.0781V20.1953H198.969C198.859 20.1953 198.062 19.4062 196.578 17.8281V17.7109ZM198.125 17.7109H198.617C198.711 17.7109 199.5 18.5 200.984 20.0781V20.1953H200.398C198.977 18.9141 198.219 18.125 198.125 17.8281V17.7109ZM199.555 17.7109H200.047C200.141 17.7109 200.93 18.5 202.414 20.0781V20.1953H201.945C201.836 20.1953 201.039 19.4062 199.555 17.8281V17.7109ZM194.211 19.0234L196.578 21.5078V22.1172H196.461C196.367 22.1172 195.539 21.2812 193.977 19.6094V19.2578C193.992 19.1016 194.07 19.0234 194.211 19.0234ZM193.977 20.5703H194.094C194.203 20.5703 195.031 21.3984 196.578 23.0547V23.5234H196.461C196.367 23.5234 195.539 22.6953 193.977 21.0391V20.5703ZM193.977 21.9766H194.094C194.203 21.9766 195.031 22.8125 196.578 24.4844V24.8359C196.578 24.9922 196.5 25.0703 196.344 25.0703L193.977 22.5859V21.9766ZM194.211 23.4062L196.578 25.9141V26.2656C196.578 26.4219 196.5 26.5 196.344 26.5L193.977 24.0156V23.6641C193.992 23.4922 194.07 23.4062 194.211 23.4062ZM193.977 24.9531H194.094C194.203 24.9531 194.68 25.4297 195.523 26.3828V26.5H195.055C194.945 26.5 194.586 26.1484 193.977 25.4453V24.9531ZM202.531 27.6953H202.648C202.758 27.6953 203.555 28.4922 205.039 30.0859V30.5547H204.922C204.812 30.5547 204.016 29.7578 202.531 28.1641V27.6953ZM202.531 29.125H202.648C202.758 29.125 203.555 29.9141 205.039 31.4922V31.9844H204.922C204.812 31.9844 204.016 31.1875 202.531 29.5938V29.125ZM202.531 30.5547H202.648C202.758 30.5547 203.555 31.3438 205.039 32.9219V33.5312H204.922C204.812 33.5312 204.016 32.7344 202.531 31.1406V30.5547ZM190.156 31.4922H190.414C190.508 31.4922 191.297 32.2891 192.781 33.8828V34H192.547C192.438 34 191.641 33.2109 190.156 31.6328V31.4922ZM191.352 31.4922H191.82C191.93 31.4922 192.727 32.2891 194.211 33.8828V34H193.742C193.633 34 192.836 33.2109 191.352 31.6328V31.4922ZM192.781 31.4922H193.367L195.758 33.8828V34H195.172C195.062 34 194.266 33.2109 192.781 31.6328V31.4922ZM194.211 31.4922H194.797C194.906 31.4922 195.703 32.2891 197.188 33.8828V34H196.578C196.484 34 195.695 33.2109 194.211 31.6328V31.4922ZM195.758 31.4922H196.227C196.336 31.4922 197.133 32.2891 198.617 33.8828V34H198.125C198.031 34 197.242 33.2109 195.758 31.6328V31.4922ZM197.188 31.4922H197.773C197.883 31.4922 198.68 32.2891 200.164 33.8828V34H199.555C199.461 34 198.672 33.2109 197.188 31.6328V31.4922ZM198.617 31.4922H199.203C199.312 31.4922 200.109 32.2891 201.594 33.8828V34H200.984C200.891 34 200.102 33.2109 198.617 31.6328V31.4922ZM200.164 31.4922H200.633C200.742 31.4922 201.531 32.2891 203 33.8828V34H202.531C202.422 34 201.633 33.2109 200.164 31.6328V31.4922ZM201.594 31.4922H202.18C202.289 31.4922 203.078 32.2891 204.547 33.8828V34H203.961C203.852 34 203.062 33.2109 201.594 31.6328V31.4922ZM200.773 0.414062H204.477C204.727 0.414062 205.32 2.83594 206.258 7.67969C206.648 9.05469 207.641 13.3828 209.234 20.6641H209.352C211.977 8.67969 213.523 1.92969 213.992 0.414062H217.812L218.047 0.53125C213.688 19.9688 211.383 30.0938 211.133 30.9062H207.57C207.383 30.9062 206.75 28.3672 205.672 23.2891L200.539 0.53125L200.773 0.414062ZM218.516 1H218.633C218.742 1 219.578 1.83594 221.141 3.50781C221.141 3.66406 221.062 3.74219 220.906 3.74219L218.516 1.25781V1ZM205.531 1.375C205.641 1.375 206.359 2.08594 207.688 3.50781V3.625C207.578 3.625 206.859 2.91406 205.531 1.49219V1.375ZM218.516 1.84375L220.906 4.35156V4.70312C220.906 4.85938 220.828 4.9375 220.672 4.9375L218.164 2.3125C218.289 2 218.406 1.84375 218.516 1.84375ZM205.906 2.42969C207.406 3.86719 208.156 4.82031 208.156 5.28906V5.54688C206.5 4.07812 205.672 3.07813 205.672 2.54688L205.906 2.42969ZM217.93 3.15625H218.164C218.273 3.15625 219.109 3.99219 220.672 5.66406V6.01562H220.438C220.328 6.01562 219.492 5.17969 217.93 3.50781V3.15625ZM217.93 4.23438L220.438 6.83594V6.95312C220.438 7.07812 220.312 7.20313 220.062 7.32812L217.695 4.82031V4.46875C217.711 4.3125 217.789 4.23438 217.93 4.23438ZM206.141 4.46875H206.258C207.852 5.8125 208.648 6.76562 208.648 7.32812H208.508C206.93 5.98438 206.141 5.03125 206.141 4.46875ZM217.695 5.40625L220.18 8.03125C220.07 8.35938 219.953 8.52344 219.828 8.52344L217.344 5.89844C217.453 5.57031 217.57 5.40625 217.695 5.40625ZM206.609 6.36719H206.727C208.32 7.69531 209.117 8.6875 209.117 9.34375H209C207.406 8.03125 206.609 7.03906 206.609 6.36719ZM217.344 6.71875C217.438 6.71875 218.266 7.55469 219.828 9.22656V9.46094C219.828 9.61719 219.75 9.69531 219.594 9.69531L217.086 7.09375V6.95312C217.117 6.79687 217.203 6.71875 217.344 6.71875ZM216.852 7.91406H217.086C217.195 7.91406 218.031 8.75 219.594 10.4219V10.6562C219.594 10.8125 219.516 10.8906 219.359 10.8906C219.25 10.8906 218.414 10.0547 216.852 8.38281V7.91406ZM207.219 8.14844C208.719 9.58594 209.469 10.5391 209.469 11.0078V11.125H209.352C207.758 9.78125 206.961 8.82812 206.961 8.26562L207.219 8.14844ZM216.852 8.99219C218.523 10.6641 219.359 11.5781 219.359 11.7344C219.281 11.8906 219.242 12.0078 219.242 12.0859H219.125C219.016 12.0859 218.18 11.25 216.617 9.57812V9.22656C216.648 9.07031 216.727 8.99219 216.852 8.99219ZM207.453 10.1875H207.57C207.664 10.1875 208.414 10.9375 209.82 12.4375V13.0469C208.242 11.7031 207.453 10.75 207.453 10.1875ZM216.383 10.3047H216.5C216.609 10.3047 217.445 11.1328 219.008 12.7891V13.2812H218.891C218.781 13.2812 217.906 12.4062 216.266 10.6562C216.344 10.5 216.383 10.3828 216.383 10.3047ZM216.266 11.5C216.375 11.5 217.203 12.3281 218.75 13.9844V14.4766H218.516C218.422 14.4766 217.594 13.6406 216.031 11.9688V11.7344C216.047 11.5781 216.125 11.5 216.266 11.5ZM207.922 11.9688C208.031 11.9688 208.789 12.7188 210.195 14.2188V14.7109H209.938C208.594 13.5703 207.922 12.7734 207.922 12.3203V11.9688ZM215.773 12.6719H216.031C216.125 12.6719 216.953 13.5078 218.516 15.1797V15.4141C218.516 15.5703 218.438 15.6484 218.281 15.6484C218.172 15.6484 217.336 14.8203 215.773 13.1641V12.6719ZM215.539 13.8672H215.656C215.766 13.8672 216.602 14.7031 218.164 16.375V16.8438H218.047C217.938 16.8438 217.102 16.0156 215.539 14.3594V13.8672ZM208.273 13.9844H208.391C208.516 13.9844 209.031 14.5 209.938 15.5312V15.6484C209.938 15.8203 209.859 15.9062 209.703 15.9062C208.75 15.1562 208.273 14.5156 208.273 13.9844ZM215.305 15.0625H215.422C215.531 15.0625 216.367 15.8984 217.93 17.5703V17.9219C217.93 18.0781 217.852 18.1562 217.695 18.1562C216.023 16.4844 215.188 15.5703 215.188 15.4141C215.266 15.2578 215.305 15.1406 215.305 15.0625ZM208.766 15.9062H208.883C208.992 15.9062 209.266 16.1797 209.703 16.7266C209.625 16.8828 209.586 17 209.586 17.0781H209.469C209 16.8125 208.766 16.4609 208.766 16.0234V15.9062ZM215.188 16.2578C215.297 16.2578 216.133 17.0938 217.695 18.7656V19.2344H217.461C217.352 19.2344 216.516 18.3984 214.953 16.7266V16.4922C214.969 16.3359 215.047 16.2578 215.188 16.2578ZM214.953 17.4531L217.461 20.0547C217.383 20.2109 217.344 20.3359 217.344 20.4297H217.203C217.109 20.4297 216.281 19.5938 214.719 17.9219V17.6875C214.734 17.5312 214.812 17.4531 214.953 17.4531ZM209.117 17.6875H209.352V17.9219H209.117V17.6875ZM214.719 18.625L217.086 21.1328V21.4844C217.086 21.6562 217.008 21.7422 216.852 21.7422L214.344 19.1172C214.469 18.7891 214.594 18.625 214.719 18.625ZM214.344 19.9375C214.453 19.9375 215.289 20.7734 216.852 22.4453V22.7969H216.617C216.508 22.7969 215.672 21.9688 214.109 20.3125V20.1953C214.141 20.0234 214.219 19.9375 214.344 19.9375ZM213.875 21.1328H214.109C214.219 21.1328 215.055 21.9688 216.617 23.6406V23.7578C216.617 23.9141 216.539 23.9922 216.383 23.9922C216.273 23.9922 215.438 23.1562 213.875 21.4844V21.1328ZM213.875 22.2109L216.383 24.8359C216.258 25.1484 216.141 25.3047 216.031 25.3047L213.641 22.7969V22.4453C213.672 22.2891 213.75 22.2109 213.875 22.2109ZM213.406 23.5234H213.523C213.633 23.5234 214.469 24.3594 216.031 26.0312V26.2656C216.031 26.4219 215.945 26.5 215.773 26.5L213.289 23.875C213.367 23.7188 213.406 23.6016 213.406 23.5234ZM213.289 24.7188C213.398 24.7188 214.227 25.5469 215.773 27.2031V27.5781H215.539C215.43 27.5781 214.602 26.7422 213.055 25.0703V24.9531C213.07 24.7969 213.148 24.7188 213.289 24.7188ZM213.055 25.7734C214.711 27.4453 215.539 28.3594 215.539 28.5156C215.461 28.6719 215.422 28.7891 215.422 28.8672H215.305C215.195 28.8672 214.359 28.0391 212.797 26.3828V26.0312C212.828 25.8594 212.914 25.7734 213.055 25.7734ZM212.562 27.0859H212.68C212.789 27.0859 213.625 27.9219 215.188 29.5938V30.0625H215.07C214.961 30.0625 214.125 29.2344 212.562 27.5781V27.0859ZM212.328 28.2812H212.445C212.555 28.2812 213.391 29.1172 214.953 30.7891V31.2578H214.719C213.047 29.7266 212.211 28.8516 212.211 28.6328C212.289 28.4766 212.328 28.3594 212.328 28.2812ZM211.977 29.4766H212.211C212.32 29.4766 213.156 30.3125 214.719 31.9844V32.2188C214.719 32.375 214.641 32.4531 214.484 32.4531C214.375 32.4531 213.539 31.6172 211.977 29.9453V29.4766ZM211.977 30.6719L214.484 33.2969C214.391 33.4375 214.344 33.5547 214.344 33.6484H214.227C214.133 33.6484 213.305 32.8125 211.742 31.1406V30.9062C211.758 30.75 211.836 30.6719 211.977 30.6719ZM208.156 31.4922H208.273C208.383 31.4922 209.18 32.2891 210.664 33.8828V34H210.547C210.438 34 209.641 33.2031 208.156 31.6094V31.4922ZM209.234 31.4922H209.82C209.93 31.4922 210.727 32.2891 212.211 33.8828V34H211.625C211.516 34 210.719 33.2031 209.234 31.6094V31.4922ZM210.664 31.4922H211.25C211.359 31.4922 212.156 32.2891 213.641 33.8828V34H213.055C212.945 34 212.148 33.2031 210.664 31.6094V31.4922ZM224.773 0.414062H228.102C228.43 0.742188 229.188 3.875 230.375 9.8125C230.688 10.8906 232.273 17.8828 235.133 30.7891L234.898 30.9062H231.195C230.961 30.9062 230.484 29 229.766 25.1875H223.109C222.391 28.5156 221.914 30.4219 221.68 30.9062H217.859L217.625 30.7891L224.539 0.53125L224.773 0.414062ZM229.062 1.375H229.18C229.289 1.375 230.039 2.125 231.43 3.625V3.74219H231.312C231.219 3.74219 230.469 2.99219 229.062 1.49219V1.375ZM229.414 2.80469H229.531C231.125 4.11719 231.922 5.10937 231.922 5.78125H231.805C230.211 4.46875 229.414 3.47656 229.414 2.80469ZM230 4.58594C231.516 6.00781 232.273 6.96094 232.273 7.44531V7.5625H232.156C230.562 6.1875 229.766 5.23438 229.766 4.70312L230 4.58594ZM230.258 6.60156H230.375C231.953 7.94531 232.742 8.89844 232.742 9.46094H232.625C231.047 8.11719 230.258 7.16406 230.258 6.60156ZM230.727 8.38281C232.32 9.75781 233.117 10.6719 233.117 11.125V11.3828H233C231.484 10.1328 230.727 9.17969 230.727 8.52344V8.38281ZM231.078 10.3047H231.195C232.789 11.6797 233.586 12.6719 233.586 13.2812H233.469C231.875 11.9688 231.078 10.9766 231.078 10.3047ZM226.32 10.6562L224.047 21.25H228.828L226.438 10.6562H226.32ZM231.57 12.3203H231.688C231.781 12.3203 232.531 13.0781 233.938 14.5938V15.1797C232.359 13.8359 231.57 12.8828 231.57 12.3203ZM226.203 13.75H226.32C226.555 13.75 226.711 14.0703 226.789 14.7109H226.672C226.547 14.7109 226.391 14.5469 226.203 14.2188V13.75ZM231.922 14.1016H232.039C233.633 15.4297 234.43 16.4219 234.43 17.0781H234.289C232.711 15.7656 231.922 14.7734 231.922 14.1016ZM225.969 14.9453H226.086C226.883 15.5234 227.281 16.1172 227.281 16.7266H227.164C226.289 15.9922 225.852 15.5156 225.852 15.2969C225.93 15.1406 225.969 15.0234 225.969 14.9453ZM232.391 16.1406H232.508C234.102 17.4844 234.898 18.4375 234.898 19H234.781C233.188 17.6562 232.391 16.7031 232.391 16.1406ZM225.594 16.2578H225.852C227.039 17.2422 227.633 17.9531 227.633 18.3906V18.5078H227.516C227.406 18.5078 226.766 17.875 225.594 16.6094V16.2578ZM225.594 17.3359L227.984 19.8203V20.3125H227.867C227.758 20.3125 226.922 19.4766 225.359 17.8047V17.5703C225.391 17.4141 225.469 17.3359 225.594 17.3359ZM232.859 17.9219C234.453 19.2969 235.25 20.2109 235.25 20.6641V20.7812H235.133C233.617 19.4844 232.859 18.6094 232.859 18.1562V17.9219ZM225.359 18.5078L227.281 20.5469V20.6641H226.672C226.562 20.6641 226.008 20.1094 225.008 19C225.133 18.6719 225.25 18.5078 225.359 18.5078ZM225.008 19.8203C225.117 19.8203 225.359 20.0625 225.734 20.5469V20.6641H225.242C225.117 20.6641 224.961 20.5078 224.773 20.1953V20.0547C224.789 19.8984 224.867 19.8203 225.008 19.8203ZM233.234 19.8203H233.352C234.93 21.1328 235.719 22.125 235.719 22.7969H235.602C234.023 21.4844 233.234 20.4922 233.234 19.8203ZM233.703 21.8594H233.82C235.414 23.2031 236.211 24.1562 236.211 24.7188H236.094C234.5 23.375 233.703 22.4219 233.703 21.8594ZM234.172 23.6406C235.766 24.9531 236.562 25.9453 236.562 26.6172H236.445C234.93 25.3203 234.172 24.4453 234.172 23.9922V23.6406ZM234.547 25.5391H234.664C236.242 26.8516 237.031 27.8438 237.031 28.5156H236.914C235.336 27.2031 234.547 26.2109 234.547 25.5391ZM224.047 25.7734H224.539C224.633 25.7734 225.422 26.5703 226.906 28.1641V28.2812H226.438C226.328 28.2812 225.531 27.4844 224.047 25.8906V25.7734ZM225.477 25.7734H226.086C226.195 25.7734 226.984 26.5703 228.453 28.1641V28.2812H227.867C227.758 28.2812 226.961 27.4844 225.477 25.8906V25.7734ZM226.906 25.7734H227.516C227.609 25.7734 228.398 26.5703 229.883 28.1641L229.648 28.2812H229.297C229.188 28.2812 228.391 27.4844 226.906 25.8906V25.7734ZM228.453 25.7734H228.945C229.336 25.9766 229.531 26.3359 229.531 26.8516H229.414C229.32 26.8516 229 26.5312 228.453 25.8906V25.7734ZM223.344 26.2656H223.578C223.688 26.2656 224.523 27.0938 226.086 28.75V28.8672C226.086 28.9922 225.969 29.1172 225.734 29.2422L223.344 26.7344V26.2656ZM223.344 27.3203L225.852 29.9453C225.773 30.0859 225.734 30.25 225.734 30.4375H225.594C225.5 30.4375 224.672 29.6016 223.109 27.9297V27.5781C223.125 27.4062 223.203 27.3203 223.344 27.3203ZM235.016 27.5781H235.133C236.648 28.875 237.406 29.7422 237.406 30.1797V30.4375C235.812 29.0781 235.016 28.125 235.016 27.5781ZM222.875 28.6328H222.992C223.086 28.6328 223.914 29.4688 225.477 31.1406V31.375C225.477 31.5312 225.398 31.6094 225.242 31.6094L222.758 29.0078C222.836 28.8516 222.875 28.7266 222.875 28.6328ZM235.367 29.3594H235.484C237.078 30.6719 237.875 31.6641 237.875 32.3359H237.758C236.164 31.0078 235.367 30.0156 235.367 29.3594ZM222.758 29.8281C222.852 29.8281 223.68 30.6641 225.242 32.3359V32.5703C225.242 32.7266 225.164 32.8047 225.008 32.8047C224.898 32.8047 224.062 31.9688 222.5 30.2969V30.0625C222.531 29.9062 222.617 29.8281 222.758 29.8281ZM222.5 30.9062L225.008 33.5312V33.6484C225.008 33.7578 224.891 33.875 224.656 34L222.266 31.4922V31.1406C222.297 30.9844 222.375 30.9062 222.5 30.9062ZM235.836 31.2578H235.977C237.477 32.5547 238.227 33.4297 238.227 33.8828L237.992 34C237.883 34 237.086 33.2031 235.602 31.6094V31.4922C235.758 31.4922 235.836 31.4141 235.836 31.2578ZM218.328 31.4922H218.586C220.086 32.9609 220.836 33.7578 220.836 33.8828V34H220.719C220.609 34 219.812 33.2031 218.328 31.6094V31.4922ZM219.406 31.4922H220.016C220.109 31.4922 220.898 32.2891 222.383 33.8828V34H221.797C221.688 34 220.891 33.2031 219.406 31.6094V31.4922ZM220.953 31.4922H221.445C221.539 31.4922 222.328 32.2891 223.812 33.8828V34H223.344C223.234 34 222.438 33.2031 220.953 31.6094V31.4922ZM232.859 31.4922H233.234C233.328 31.4922 234.117 32.2891 235.602 33.8828V34H235.016C234.906 34 234.109 33.2031 232.625 31.6094L232.859 31.4922ZM234.172 31.4922H234.664C234.758 31.4922 235.547 32.2891 237.031 33.8828V34H236.562C236.453 34 235.656 33.2031 234.172 31.6094V31.4922ZM231.805 31.6094H231.922C232.016 31.6094 232.766 32.3672 234.172 33.8828H234.055C233.961 33.8828 233.211 33.125 231.805 31.6094ZM237.875 0.34375H245.727C248.164 0.34375 249.75 1.33594 250.484 3.32031C250.641 3.86719 250.719 4.34375 250.719 4.75V13.5391C250.719 15.5703 249.609 16.9609 247.391 17.7109L246.922 17.8281C247.078 18.375 248.703 22.6953 251.797 30.7891L251.562 30.9062H247.625C247.25 30.3906 245.984 27.1406 243.828 21.1562C242.953 18.9375 242.477 17.8281 242.398 17.8281H241.695V30.6719C241.695 30.8281 241.609 30.9062 241.438 30.9062H237.875C237.719 30.9062 237.641 30.8281 237.641 30.6719V0.578125C237.672 0.421875 237.75 0.34375 237.875 0.34375ZM251.188 3.55469C252.5 4.67969 253.18 5.39062 253.227 5.6875H253.109C253 5.6875 252.359 5.05469 251.188 3.78906V3.55469ZM241.695 4.39844V13.8906H245.141C246.172 13.8906 246.688 13.375 246.688 12.3438V5.80469C246.609 4.86719 246.211 4.39844 245.492 4.39844H241.695ZM251.445 4.63281C253.023 6.16406 253.812 7.10938 253.812 7.46875V7.72656H253.695C253.586 7.72656 252.75 6.89062 251.188 5.21875V4.86719C251.219 4.71094 251.305 4.63281 251.445 4.63281ZM242.633 4.86719H243.102C243.211 4.86719 244.047 5.69531 245.609 7.35156V7.46875H245.141C245.031 7.46875 244.195 6.64063 242.633 4.98438V4.86719ZM244.062 4.86719H244.648C244.758 4.86719 245.234 5.34375 246.078 6.29688V6.88281H245.961C245.867 6.88281 245.234 6.25 244.062 4.98438V4.86719ZM245.609 4.98438H245.727C245.836 4.98438 245.953 5.10156 246.078 5.33594V5.45312H245.961C245.852 5.45312 245.734 5.33594 245.609 5.10156V4.98438ZM242.398 5.45312L244.766 7.96094V8.3125C244.766 8.46875 244.688 8.54688 244.531 8.54688C242.953 7.01563 242.164 6.0625 242.164 5.6875C242.18 5.53125 242.258 5.45312 242.398 5.45312ZM251.445 6.17969L253.812 8.66406V9.13281H253.695C253.586 9.13281 252.75 8.30469 251.188 6.64844V6.41406C251.219 6.25781 251.305 6.17969 251.445 6.17969ZM242.398 6.88281L244.766 9.39062V9.97656H244.648C242.992 8.52344 242.164 7.57031 242.164 7.11719C242.18 6.96094 242.258 6.88281 242.398 6.88281ZM251.445 7.60938L253.812 10.0938V10.6797H253.695C252.023 9.27344 251.188 8.28906 251.188 7.72656L251.445 7.60938ZM242.398 8.42969L244.766 10.9375V11.4062H244.648C244.555 11.4062 243.727 10.5703 242.164 8.89844V8.66406C242.18 8.50781 242.258 8.42969 242.398 8.42969ZM251.445 9.01562L253.812 11.5234V12.1094H253.695C253.586 12.1094 252.75 11.2812 251.188 9.625V9.27344C251.219 9.10156 251.305 9.01562 251.445 9.01562ZM242.398 9.85938L244.766 12.3438V12.9531H244.648C242.992 11.5 242.164 10.5469 242.164 10.0938C242.18 9.9375 242.258 9.85938 242.398 9.85938ZM251.445 10.5625L253.812 13.0703V13.5391H253.695C253.586 13.5391 252.75 12.7109 251.188 11.0547V10.8203C251.219 10.6484 251.305 10.5625 251.445 10.5625ZM242.398 11.2891L244.18 13.1875V13.3047H243.594C243.484 13.3047 243.008 12.8281 242.164 11.875V11.5234C242.18 11.3672 242.258 11.2891 242.398 11.2891ZM251.445 11.9922L253.812 14.5V15.0859H253.695C252.023 13.6328 251.188 12.6797 251.188 12.2266C251.219 12.0703 251.305 11.9922 251.445 11.9922ZM242.398 12.8359L242.633 13.1875V13.3047H242.398C242.242 13.3047 242.164 13.2266 242.164 13.0703C242.18 12.9141 242.258 12.8359 242.398 12.8359ZM251.445 13.4219L253.812 16.0469V16.5156H253.695C253.586 16.5156 252.75 15.6875 251.188 14.0312V13.6562C251.219 13.5 251.305 13.4219 251.445 13.4219ZM251.188 14.8516C251.297 14.8516 252.133 15.6875 253.695 17.3594V17.5938C253.695 17.75 253.617 17.8281 253.461 17.8281L250.953 15.2031V15.0859C250.984 14.9297 251.062 14.8516 251.188 14.8516ZM250.836 15.8125L253.344 18.4141V18.5312C253.344 18.6562 253.227 18.7812 252.992 18.9062L250.484 16.2812V16.1641C250.484 16.0547 250.602 15.9375 250.836 15.8125ZM250.016 16.75H250.133C250.242 16.75 251.109 17.625 252.734 19.375C252.734 19.5312 252.656 19.6094 252.5 19.6094H252.383C252.273 19.6094 251.406 18.7344 249.781 16.9844C249.797 16.8281 249.875 16.75 250.016 16.75ZM249.055 17.4766H249.406C249.516 17.4766 250.352 18.3047 251.914 19.9609V20.0781C251.914 20.2344 251.836 20.3125 251.68 20.3125C251.57 20.3125 250.695 19.4453 249.055 17.7109V17.4766ZM248.352 17.9453H248.469C248.578 17.9453 249.445 18.8203 251.07 20.5703C250.82 20.7266 250.625 20.8047 250.484 20.8047L247.977 18.1797L248.352 17.9453ZM247.977 19.0234C249.492 20.3203 250.25 21.2266 250.25 21.7422H250.133C248.695 20.5391 247.977 19.6719 247.977 19.1406V19.0234ZM242.398 19.1406L242.867 20.3125H242.75C242.359 20.1094 242.164 19.7969 242.164 19.375C242.18 19.2188 242.258 19.1406 242.398 19.1406ZM242.398 20.5703C243.273 21.3828 243.711 22.0938 243.711 22.7031C243.602 22.7031 243.086 22.1875 242.164 21.1562V20.8047C242.18 20.6484 242.258 20.5703 242.398 20.5703ZM248.82 21.3906H248.938C250.438 22.6562 251.188 23.6094 251.188 24.25H251.07C249.57 22.9531 248.82 22 248.82 21.3906ZM242.398 22.1172C243.82 23.4609 244.531 24.3672 244.531 24.8359V24.9531C244.438 24.9531 243.648 24.1641 242.164 22.5859V22.3516C242.18 22.1953 242.258 22.1172 242.398 22.1172ZM242.398 23.6641C242.508 23.6641 243.297 24.4531 244.766 26.0312V26.6172H244.648C242.992 25.1797 242.164 24.2344 242.164 23.7812L242.398 23.6641ZM249.641 23.6641H249.781C251.281 24.8984 252.031 25.8828 252.031 26.6172C250.438 25.2734 249.641 24.2891 249.641 23.6641ZM242.398 24.9531L244.766 27.4609V28.0469H244.648C244.555 28.0469 243.727 27.2188 242.164 25.5625V25.2109C242.18 25.0391 242.258 24.9531 242.398 24.9531ZM250.602 26.1484H250.719C252.141 27.3203 252.852 28.2344 252.852 28.8906C251.352 27.5938 250.602 26.6797 250.602 26.1484ZM242.398 26.5L244.766 29.0078V29.4766H244.648C244.555 29.4766 243.727 28.6484 242.164 26.9922V26.7344C242.18 26.5781 242.258 26.5 242.398 26.5ZM242.398 27.9297L244.766 30.4375V31.0234H244.648C242.992 29.5703 242.164 28.6172 242.164 28.1641C242.18 28.0078 242.258 27.9297 242.398 27.9297ZM251.562 28.4219C253.062 29.625 253.812 30.6094 253.812 31.375C252.312 30.1094 251.562 29.1641 251.562 28.5391V28.4219ZM242.398 29.3594L244.766 31.8672V32.4531H244.648C244.555 32.4531 243.727 31.6172 242.164 29.9453V29.5938C242.18 29.4375 242.258 29.3594 242.398 29.3594ZM252.383 30.7891H252.5C254.016 32.0547 254.773 33.0078 254.773 33.6484H254.656C253.141 32.3984 252.383 31.4453 252.383 30.7891ZM242.398 30.9062L244.766 33.4141V33.8828H244.648C242.992 32.4297 242.164 31.4766 242.164 31.0234L242.398 30.9062ZM239.305 31.375H239.891C240 31.375 240.836 32.2109 242.398 33.8828L242.164 34H241.812C241.703 34 240.867 33.1641 239.305 31.4922V31.375ZM240.969 31.375H241.32C241.43 31.375 242.266 32.2109 243.828 33.8828V34H243.219C243.125 34 242.297 33.1641 240.734 31.4922L240.969 31.375ZM248.352 31.375H248.703C248.812 31.375 249.641 32.2109 251.188 33.8828L250.953 34H250.602C250.492 34 249.664 33.1641 248.117 31.4922L248.352 31.375ZM249.781 31.375H250.133C250.242 31.375 251.07 32.2109 252.617 33.8828V34H252.031C251.922 34 251.086 33.1641 249.523 31.4922L249.781 31.375ZM251.07 31.375H251.562C251.656 31.375 252.484 32.2109 254.047 33.8828V34H253.578C253.469 34 252.633 33.1641 251.07 31.4922V31.375ZM238.344 31.4922H238.484C238.578 31.4922 239.367 32.2891 240.852 33.8828H240.734C240.625 33.8828 239.828 33.0859 238.344 31.4922ZM256.812 0.460938H265.391C267.797 0.460938 269.219 1.96875 269.656 4.98438V26.2656C269.656 28.6406 268.469 30.1875 266.094 30.9062H256.812C256.656 30.9062 256.578 30.8281 256.578 30.6719V0.695312C256.609 0.539062 256.688 0.460938 256.812 0.460938ZM270.008 3.55469H270.125C271.328 4.61719 271.93 5.25 271.93 5.45312V5.57031C271.82 5.57031 271.18 4.9375 270.008 3.67188V3.55469ZM260.633 4.375V26.9922H264.312C264.828 26.9922 265.227 26.7109 265.508 26.1484V5.57031C265.508 4.86719 265.031 4.46875 264.078 4.375H260.633ZM270.125 4.75H270.266C271.922 6.17188 272.75 7.16406 272.75 7.72656H272.633C272.523 7.72656 271.688 6.89062 270.125 5.21875V4.75ZM261.219 4.98438H261.688C261.797 4.98438 262.594 5.77344 264.078 7.35156V7.46875H263.586C263.492 7.46875 262.703 6.67969 261.219 5.10156V4.98438ZM262.648 4.98438H263.234C263.328 4.98438 263.922 5.57812 265.016 6.76562V7.35156H264.898C264.805 7.35156 264.055 6.60156 262.648 5.10156V4.98438ZM264.078 4.98438H264.547C264.672 4.98438 264.828 5.14063 265.016 5.45312V5.92188H264.898C264.789 5.92188 264.516 5.64844 264.078 5.10156V4.98438ZM261.336 5.92188L263.703 8.42969V8.78125C263.703 8.9375 263.625 9.01562 263.469 9.01562L261.102 6.53125V6.17969C261.117 6.00781 261.195 5.92188 261.336 5.92188ZM270.125 6.17969H270.266C270.359 6.17969 271.188 7.00781 272.75 8.66406V9.01562C272.75 9.1875 272.672 9.27344 272.516 9.27344L270.125 6.76562V6.17969ZM261.336 7.35156L263.703 9.85938V10.4453H263.586C263.492 10.4453 262.664 9.61719 261.102 7.96094V7.58594C261.117 7.42969 261.195 7.35156 261.336 7.35156ZM270.383 7.58594L272.75 10.0938V10.4453C272.75 10.6016 272.672 10.6797 272.516 10.6797L270.125 8.19531V7.84375C270.156 7.67188 270.242 7.58594 270.383 7.58594ZM261.102 8.89844H261.219C261.328 8.89844 262.156 9.73438 263.703 11.4062V11.875H263.586C263.492 11.875 262.664 11.0469 261.102 9.39062V8.89844ZM270.125 9.13281H270.266C270.359 9.13281 271.188 9.96875 272.75 11.6406V12.1094H272.633C272.523 12.1094 271.688 11.2812 270.125 9.625V9.13281ZM261.336 10.3281L263.703 12.8359V13.4219H263.586C263.492 13.4219 262.664 12.5938 261.102 10.9375V10.5625C261.117 10.4062 261.195 10.3281 261.336 10.3281ZM270.125 10.5625H270.266C270.359 10.5625 271.188 11.3984 272.75 13.0703V13.4219C272.75 13.5781 272.672 13.6562 272.516 13.6562L270.125 11.1719V10.5625ZM261.336 11.7578C261.336 11.8828 262.086 12.6328 263.586 14.0078L263.703 14.2656V14.8516H263.586C263.492 14.8516 262.664 14.0156 261.102 12.3438V11.9922C261.117 11.8359 261.195 11.7578 261.336 11.7578ZM270.383 11.9922C271.961 13.5234 272.75 14.4766 272.75 14.8516C272.75 15.0078 272.672 15.0859 272.516 15.0859L270.125 12.6016V12.2266C270.156 12.0703 270.242 11.9922 270.383 11.9922ZM261.336 13.3047L263.703 15.8125V16.2812H263.586C263.492 16.2812 262.664 15.4453 261.102 13.7734V13.5391C261.117 13.3828 261.195 13.3047 261.336 13.3047ZM270.125 13.5391H270.266C270.359 13.5391 271.188 14.375 272.75 16.0469V16.5156H272.633C272.523 16.5156 271.688 15.6797 270.125 14.0078V13.5391ZM261.336 14.7344L263.703 17.2188V17.8281H263.586C263.492 17.8281 262.664 16.9922 261.102 15.3203V14.9688C261.117 14.8125 261.195 14.7344 261.336 14.7344ZM270.125 14.9688H270.266C270.359 14.9688 271.188 15.8047 272.75 17.4766V17.8281C272.75 17.9844 272.672 18.0625 272.516 18.0625L270.125 15.5547V14.9688ZM261.102 16.2812H261.219C261.328 16.2812 262.156 17.1094 263.703 18.7656V19.2578H263.586C263.492 19.2578 262.664 18.4219 261.102 16.75V16.2812ZM270.125 16.5156H270.266C270.5 16.5156 271.328 17.3516 272.75 19.0234V19.2578C272.75 19.4141 272.672 19.4922 272.516 19.4922L270.125 16.9844V16.5156ZM261.336 17.7109L263.703 20.1953V20.6875H263.586C263.492 20.6875 262.664 19.8516 261.102 18.1797V17.9453C261.117 17.7891 261.195 17.7109 261.336 17.7109ZM270.125 17.9453H270.266C270.359 17.9453 271.188 18.7812 272.75 20.4531V20.9219H272.633C272.523 20.9219 271.688 20.0859 270.125 18.4141V17.9453ZM261.336 19.1406L263.703 21.625V22.2344H263.586C263.492 22.2344 262.664 21.3984 261.102 19.7266V19.375C261.117 19.2188 261.195 19.1406 261.336 19.1406ZM270.125 19.375H270.266C270.359 19.375 271.188 20.2031 272.75 21.8594V22.2344C272.75 22.3906 272.672 22.4688 272.516 22.4688L270.125 19.9609V19.375ZM261.102 20.6875H261.219C261.328 20.6875 262.156 21.5156 263.703 23.1719V23.6641H263.586C263.492 23.6641 262.664 22.8281 261.102 21.1562V20.6875ZM270.383 20.8047C271.961 22.3672 272.75 23.3203 272.75 23.6641V23.8984H272.633C272.523 23.8984 271.688 23.0625 270.125 21.3906V21.0391C270.156 20.8828 270.242 20.8047 270.383 20.8047ZM261.336 22.1172L263.703 24.6016V25.0703H263.586C261.93 23.7109 261.102 22.8047 261.102 22.3516C261.117 22.1953 261.195 22.1172 261.336 22.1172ZM270.125 22.3516H270.266C270.359 22.3516 271.188 23.1797 272.75 24.8359V25.3281H272.633C271.648 24.4688 270.812 23.6328 270.125 22.8203V22.3516ZM261.336 23.5234L263.703 26.0312V26.2656C263.703 26.4219 263.625 26.5 263.469 26.5C263.375 26.5 262.586 25.7109 261.102 24.1328V23.7812C261.117 23.6094 261.195 23.5234 261.336 23.5234ZM270.383 23.7812L272.75 26.2656V26.6172C272.75 26.7891 272.672 26.875 272.516 26.875L270.125 24.3672V24.0156C270.156 23.8594 270.242 23.7812 270.383 23.7812ZM261.102 25.0703H261.219C261.328 25.0703 261.766 25.5078 262.531 26.3828V26.5H262.039C261.945 26.5 261.633 26.1875 261.102 25.5625V25.0703ZM270.125 25.3281H270.266C270.359 25.3281 271.188 26.1562 272.75 27.8125V28.2812H272.633C272.523 28.2812 271.688 27.4531 270.125 25.7969V25.3281ZM270.125 26.7344H270.266C270.359 26.7344 271.188 27.5703 272.75 29.2422V29.5938C272.75 29.75 272.672 29.8281 272.516 29.8281L270.125 27.3438V26.7344ZM270.125 27.9297L272.633 30.5547V30.6719C272.633 30.7812 272.516 30.8984 272.281 31.0234L269.773 28.3984C269.898 28.0859 270.016 27.9297 270.125 27.9297ZM269.656 29.0078L272.164 31.6328V31.75C272.164 31.9062 272.086 31.9844 271.93 31.9844C271.82 31.9844 270.945 31.1094 269.305 29.3594C269.305 29.25 269.422 29.1328 269.656 29.0078ZM268.953 29.8281C269.062 29.8281 269.93 30.7031 271.555 32.4531V32.5703C271.555 32.7266 271.477 32.8047 271.32 32.8047C271.164 32.8047 270.258 31.9375 268.602 30.2031C268.602 30.0781 268.719 29.9531 268.953 29.8281ZM268.109 30.5547H268.227C268.336 30.5547 269.211 31.4219 270.852 33.1562C270.852 33.3281 270.773 33.4141 270.617 33.4141H270.383C270.273 33.4141 269.438 32.5781 267.875 30.9062V30.7891C267.906 30.6328 267.984 30.5547 268.109 30.5547ZM266.914 31.1406H267.289C267.383 31.1406 268.211 31.9766 269.773 33.6484V33.8828H269.422C269.312 33.8828 268.477 33.0469 266.914 31.375V31.1406ZM266.211 31.375L268.602 33.8828V34H267.992C267.883 34 267.094 33.2109 265.625 31.6328V31.4922L266.211 31.375ZM257.281 31.4922H257.422C257.516 31.4922 258.305 32.2891 259.789 33.8828V34H259.672C259.562 34 258.766 33.2109 257.281 31.6328V31.4922ZM258.359 31.4922H258.828C258.938 31.4922 259.734 32.2891 261.219 33.8828V34H260.75C260.641 34 259.844 33.2109 258.359 31.6328V31.4922ZM259.789 31.4922H260.375C260.484 31.4922 261.281 32.2891 262.766 33.8828V34H262.18C262.07 34 261.273 33.2109 259.789 31.6328V31.4922ZM261.219 31.4922H261.805C261.914 31.4922 262.711 32.2891 264.195 33.8828V34H263.586C263.492 34 262.703 33.2109 261.219 31.6328V31.4922ZM262.766 31.4922H263.234C263.344 31.4922 264.141 32.2891 265.625 33.8828V34H265.133C265.039 34 264.25 33.2109 262.766 31.6328V31.4922ZM264.195 31.4922H264.781C264.891 31.4922 265.688 32.2891 267.172 33.8828V34H266.562C266.469 34 265.68 33.2109 264.195 31.6328V31.4922Z" fill="black"/>
</svg>
