<svg width="35" height="29" viewBox="0 0 35 29" fill="none" xmlns="http://www.w3.org/2000/svg">
<path d="M33.6946 4.27032C32.4912 4.82528 31.2001 5.20165 29.8435 5.36968C31.2286 4.50635 32.289 3.13699 32.7915 1.51031C31.4922 2.30981 30.0579 2.89034 28.5297 3.20505C27.306 1.84631 25.5653 1 23.6346 1C19.9306 1 16.9274 4.12576 16.9274 7.97873C16.9274 8.52518 16.9866 9.0589 17.101 9.56927C11.5277 9.27791 6.5856 6.49878 3.27794 2.27578C2.69975 3.30497 2.37082 4.50418 2.37082 5.7843C2.37082 8.20625 3.55579 10.3432 5.35367 11.5935C4.2545 11.5552 3.22072 11.2405 2.31569 10.7174V10.8046C2.31569 14.1855 4.62841 17.0072 7.69497 17.6494C7.13313 17.8068 6.54067 17.8939 5.92775 17.8939C5.49466 17.8939 5.07582 17.8493 4.66516 17.7642C5.51912 20.5391 7.99531 22.557 10.9291 22.6124C8.63478 24.4836 5.74184 25.5957 2.59969 25.5957C2.0583 25.5957 1.52504 25.5616 1 25.5C3.96853 27.4839 7.49277 28.6406 11.2805 28.6406C23.6184 28.6406 30.3625 18.0045 30.3625 8.78039L30.34 7.8767C31.6577 6.8985 32.7977 5.66948 33.6946 4.27032Z" fill="black" stroke="white" stroke-width="0.5"/>
</svg>
