<svg width="31" height="25" viewBox="0 0 31 25" fill="none" xmlns="http://www.w3.org/2000/svg">
<path fill-rule="evenodd" clip-rule="evenodd" d="M30.5785 2.85915C30.2818 3.32523 29.959 3.75405 29.6101 4.14562C29.2612 4.53718 28.8855 4.89182 28.4831 5.20954C28.3138 5.3579 28.1444 5.49542 27.9751 5.62211C27.8057 5.74879 27.6468 5.87581 27.4985 6.00317V6.73379C27.4985 7.28455 27.4721 7.83498 27.4192 8.38506C27.3664 8.93515 27.2871 9.47507 27.1814 10.0048C26.8 11.6984 26.2496 13.2491 25.5302 14.6568C24.8107 16.0646 23.9375 17.3294 22.9105 18.4512C21.8835 19.5731 20.7034 20.5469 19.3702 21.3727C18.037 22.1985 16.5445 22.8549 14.8929 23.342C14.3002 23.5114 13.6332 23.6597 12.8921 23.7871C12.151 23.9145 11.3834 23.9991 10.5895 24.0411C9.7955 24.0831 9.00696 24.0777 8.22383 24.0249C7.44071 23.972 6.71042 23.8609 6.03298 23.6916C5.31286 23.5222 4.64083 23.3369 4.01691 23.1357C3.39298 22.9345 2.7843 22.7069 2.19085 22.4529C1.91581 22.3472 1.63535 22.2202 1.34947 22.0718C1.06359 21.9234 0.772625 21.7646 0.476582 21.5952L0 21.3097C0.21204 21.3307 0.439661 21.352 0.682864 21.3737C0.926066 21.3954 1.16419 21.4059 1.39723 21.4052H1.71529C1.71529 21.4052 1.82131 21.3947 2.03335 21.3737C2.33007 21.331 2.62645 21.3046 2.92249 21.2944C3.21854 21.2843 3.51492 21.2474 3.81164 21.1837C4.51008 21.0563 5.17703 20.8815 5.81247 20.6593C6.44791 20.4371 7.06202 20.1672 7.65478 19.8494C7.86682 19.7221 8.1422 19.5686 8.48092 19.3891C8.81964 19.2096 9.08419 19.0138 9.27455 18.8018C8.93583 18.8018 8.60761 18.7699 8.28988 18.7063C7.97216 18.6426 7.66528 18.5579 7.36924 18.4522C6.37407 18.1135 5.56419 17.6213 4.93958 16.9757C4.31498 16.3301 3.81232 15.5311 3.43159 14.5786C3.72831 14.6213 4.2154 14.6531 4.89284 14.6741C5.57028 14.6951 6.01503 14.6209 6.22707 14.4516C5.84567 14.4089 5.48052 14.3188 5.13164 14.1813C4.78276 14.0438 4.45995 13.869 4.16323 13.6569C3.27375 13.1488 2.55938 12.4501 2.02014 11.5606C1.48089 10.6711 1.21093 9.68677 1.21025 8.6076V8.44908L1.87686 8.76714C2.04622 8.83082 2.242 8.8945 2.4642 8.95818C2.6864 9.02186 2.91403 9.0747 3.14707 9.1167L3.46513 9.18072C3.46513 9.18072 3.57115 9.19122 3.78319 9.21222C3.82587 9.21222 3.86821 9.2068 3.91021 9.19596C3.95221 9.18512 3.99455 9.1797 4.03723 9.1797H4.00573C3.85737 9.01034 3.66667 8.85148 3.43363 8.70312C3.20058 8.55476 3.00988 8.3854 2.86152 8.19504C2.33244 7.58127 1.8877 6.79781 1.5273 5.84465C1.1669 4.89148 1.14556 3.84348 1.46328 2.70063C1.54796 2.40391 1.64856 2.11803 1.76508 1.84298C1.8816 1.56794 2.0032 1.3139 2.12988 1.08086L2.16139 1.11236C2.24607 1.21804 2.33617 1.32406 2.43169 1.43042C2.52721 1.53678 2.61731 1.6428 2.70199 1.74848C2.99871 2.0662 3.30051 2.368 3.60739 2.65388C3.91427 2.93977 4.22657 3.20973 4.5443 3.46377C5.64514 4.31057 6.83067 5.04086 8.10088 5.65462C9.37108 6.26839 10.7155 6.73413 12.134 7.05185C12.6211 7.15753 13.1082 7.24221 13.5953 7.30589C14.0824 7.36957 14.5695 7.41191 15.0565 7.43291C15.0139 7.22087 14.9769 6.99867 14.9458 6.76631C14.9146 6.53395 14.8987 6.3009 14.898 6.06719C14.898 5.79214 14.9194 5.5276 14.962 5.27356C15.0047 5.01952 15.0576 4.77598 15.1206 4.54294C15.3536 3.63245 15.7824 2.82257 16.407 2.11328C17.0316 1.404 17.7673 0.869495 18.6141 0.509773C18.8472 0.425092 19.0748 0.345831 19.297 0.27199C19.5192 0.198148 19.7573 0.139888 20.0114 0.0972091L20.805 0.00168951C22.0332 -0.0193113 23.0175 0.155469 23.758 0.526031C24.4984 0.896593 25.1759 1.35692 25.7903 1.907C26.3831 1.82232 26.9548 1.6848 27.5056 1.49444C28.0563 1.30408 28.5749 1.08187 29.0613 0.827833L29.7605 0.44677C29.5701 1.01853 29.3001 1.54796 28.9506 2.03504C28.601 2.52212 28.204 2.93502 27.7596 3.27374C27.6539 3.37943 27.5428 3.46953 27.4263 3.54405C27.3098 3.61856 27.1882 3.68733 27.0615 3.75033V3.78183C27.739 3.78183 28.3636 3.66531 28.9353 3.43227C29.5071 3.19923 30.0575 2.99803 30.5866 2.82866V2.86017L30.5785 2.85915Z" fill="black"/>
</svg>
